<svg xmlns="http://www.w3.org/2000/svg" xmlns:xlink="http://www.w3.org/1999/xlink" viewBox="0 0 548.04 615.76">
  <defs>
    <style>
      .blue-cls-1 {
        fill: url(#linear-gradient-blue);
      }
    </style>
    <linearGradient id="linear-gradient-blue" x1="125.29" y1="115.85" x2="349.4" y2="339.96" gradientUnits="userSpaceOnUse">
      <stop offset="0" stop-color="#00adc4"/>
      <stop offset="1" stop-color="#0282b7"/>
    </linearGradient>
  </defs>
  <title>Asset 1</title>
  <g id="Layer_2" data-name="Layer 2">
    <g id="Layer_1-2" data-name="Layer 1">
      <path class="blue-cls-1" d="M446.1,319.52c-.09.18-.16.34-.23.49l0-.37Zm-204.94-70c-.63,3.49-1.26,6.74-1.89,10.22C225.83,253.46,214.79,244,199.21,246l-.86,10.58c-12.94-5.27-23.68-12.3-39.18-11.34l-1.34,16.47c-11.76-7.17-26.3-7.75-40.18-5.08.77,4.23,1.61,7.49,2.31,11.37-9.31-3.33-17.42-6-26.84-3.67,1.37,4.71,2.61,8.79,3.89,13.17-18.19-.4-25.64-.56-32.95-.25.64,2-.35,7.7.16,9.26L0,293.11c20.19,9,40.83,16.91,62.7,22.58l-3.15,8.36,35.1,8.33c-1.39,2.71-3.15,6.13-5.47,10.62,14.16,5.68,27.83,6.88,43.32,2.65-2.93,5.73-5.44,10.65-8.33,16.28,13.68,4.8,26.25,1.15,39.62-2.82-.86,5.54-1.41,10.22-2.27,15.78,15.45,2.36,28.46-3,42.44-10.53l-.88,10.79c15.32,1.34,28.14-4.55,42-10.83l-.6,7.33c10,3,18.2-.62,26.86-3.69,1.82-.65,4.86-1.36,5.66-.48,3.93,4.35-1.17,5.82,12.68,1.81,7.74-2.24,15.15-5.44,22.73-8.19,3.23,2,7.27,4.22,10.22,3.21,9.22-3.16,18-7.51,27-11.45,1.49-.66,2.87-1.54,4.73-2.54,1.45,5.09,4.44,7.6,8.84,5.54,7.27-3.4,14.22-7.48,21.32-11.24A15.61,15.61,0,0,1,389,342.7c3.3-.53,6.94.05,10-1.11,11.11-4.26,22.25-8.83,33.11-13.7,4.57-2.05,8.74-5.07,14.14-8.23l.53-6.6c-3-.85-7-3.51-10.17-4.91C428,304.4,411.15,291,402.76,290.22c-5.95-.57-5,.28-10.25-1.7s-10.54-7.68-16-8.8c-2.29-.46-1.22,4.68-3.24,3.71-9.19-4.41-18.23-9.12-28-14-.92,3.44-1.4,5.23-2.13,7.92-11.21-7.8-22.63-13.79-35.64-16.53l-2.6,7.8c-1.7-.61-3.12-1-4.47-1.62-7.61-3.29-15.06-7-22.88-9.7-3-1-6.57-2.23-10-1.92,0,.67-.23,4-.23,4.63C259,255.66,252,247.94,241.16,249.48Zm206.39,63.25-.27.17.45-.1ZM391.7,140c-2.67,1.33-5.1,2.63-7.75,4-2.57-12.16-2.13-24.85-10.88-33.71L365.53,115c-2.89-11.23-3.83-22.39-11.88-31.68l-11.73,7.38c-1.49-12.12-8.18-21.81-16.95-29.78-2.46,2.64-4.31,4.72-6.56,7.14C316,60.1,313.63,53.26,307.34,48.1c-2.47,3.28-4.6,6.14-6.91,9.2C291.56,44.89,287.91,39.79,284,35c-1,1.41-5.35,3.63-6.14,4.75L241.14,0A332.63,332.63,0,0,0,257.5,53.46l-7.2,2.08c4.17,9.58,8.1,18.63,12.06,27.76L252.48,85c3.31,12.36,9.37,22.14,20,30.42L257.36,118c3.67,11.6,12.43,18.2,21.82,25.18-4.15,2.21-7.78,3.87-11.94,6.09,6.18,11.56,16.75,18.33,28.21,22.87L287.76,177c7,11.27,17.79,17.53,28.92,23.58l-5.22,3.29c2.55,7.53,9.51,11.83,15.93,16.09,1.35.9,3.33,2.54,3.14,3.52-.95,4.82-4.51,2.12,5.15,9.4,5.39,4.07,11.26,7.43,16.91,11.14.29,3.17.83,7,3,8.46,6.75,4.61,14.11,8.33,21.25,12.36,1.19.67,2.48,1.16,4.09,1.9-2.69,3.53-2.88,6.8.73,8.72,5.93,3.17,12.17,5.78,18.26,8.66a13,13,0,0,1,3.52,2c2,1.95,3.46,4.68,5.75,6.12q12.68,8,25.79,15.25c3.68,2,7.79,3.31,12.58,5.26l4.7-3c-1.12-2.72-1.1-6.35-1.76-9.21-1.77-7.6-1.23-25.59-4.91-31.63-2.61-4.28-2.68-3.19-4-7.71s-.13-10.94-2.15-15.18c-.84-1.78-3.74,1.54-4.11-.31-1.66-8.39-3.05-16.82-4.63-25.82l-6.39,2.55c-.4-11.46-2.12-22.13-6.83-32.25l-6.53,2.18c-.45-1.45-.88-2.61-1.17-3.81-1.62-6.76-2.85-13.65-5-20.25-.81-2.51-1.81-5.52-3.74-7.67-.45.33-2.77,1.84-3.22,2.17C396.52,155.06,398.17,146.47,391.7,140Zm54.1,183.71-.44-.14.25.19ZM382.06,468.32c.41.38,2.58,2.09,3,2.47,2.13-2,3.4-4.87,4.45-7.29,2.74-6.37,4.61-13.11,6.86-19.69.4-1.17.93-2.28,1.52-3.69l6.3,2.78c5.63-9.63,8.35-20.09,9.82-31.46l6.12,3.14c2.42-8.81,4.59-17.09,7-25.28.54-1.8,3.12,1.77,4.12.08,2.41-4,1.86-10.59,3.57-14.91s1.7-3.28,4.7-7.3c4.23-5.67,5.38-23.64,7.85-31,.93-2.78,1.25-6.39,2.61-9l-4.4-3.39c-4.95,1.5-9.16,2.37-13,4.06q-13.73,6-27.11,12.77c-2.42,1.22-4.11,3.8-6.3,5.55a12.78,12.78,0,0,1-3.69,1.68c-6.34,2.3-12.79,4.31-19,6.91-3.77,1.58-3.9,4.85-1.55,8.62-1.67.59-3,.95-4.24,1.5-7.49,3.35-15.16,6.36-22.32,10.32-2.29,1.26-3.18,5-3.77,8.15-6,3.16-12.13,5.95-17.88,9.5-10.29,6.34-6.5,4-6,8.87.1,1-2,2.45-3.45,3.21-6.79,3.65-14.12,7.28-17.37,14.53l4.89,3.76c-11.65,5-23,10.21-31,20.77l7.2,5.54c-11.83,3.45-23,9.2-30.23,20.13,3.94,2.6,7.39,4.59,11.31,7.18-10,6.07-19.34,11.82-24.07,23l14.81,4c-11.36,7.24-18.32,16.41-22.77,28.41l9.68,2.58-14.6,26.51,7,2.75a334,334,0,0,0-21.31,51.69l40.32-36.17c.68,1.19,4.81,3.81,5.67,5.3,4.31-4.36,8.42-9.1,18.42-20.62,2,3.26,3.86,6.3,6,9.8,6.76-4.55,9.72-11.14,12.9-18.8,2,2.62,3.66,4.86,5.86,7.72,9.47-7.12,17-16.13,19.66-28.06l11,8.45c8.88-8.5,10.86-19.53,14.8-30.44,2.21,1.71,4.29,3.3,7.06,5.43,9.54-8,10.29-20.67,14-32.54,2.51,1.57,4.81,3.09,7.34,4.67C380.88,484.64,380,475.93,382.06,468.32Zm70-162.73-.18,0,.23.16A1.17,1.17,0,0,1,452,305.59Zm55.24-95.39c-1.69-.66-3.26-1.23-4.94-1.88,4.44-6.1,10.35-11.06,10.79-18.6l-5.2-1.48c3.89-5.87,8.54-10.83,9.46-18.24l-8.09-2.29c4.86-5.6,6.51-12.55,6.55-19.75-2.2,0-3.89,0-5.89-.05,2.58-4.32,4.72-8.16,4.49-13.1l-7,.63c2-9,2.81-12.77,3.38-16.45-1,.13-3.82-.94-4.64-.84l3-32.74a202.19,202.19,0,0,0-17.46,29.1l-3.87-2.4c-2.62,5.77-5.11,11.22-7.62,16.72l-4.77-3.78a33.06,33.06,0,0,0-5.59,21.38l-7.31-5.76c-3.75,6.36-3.16,13-2.5,20.07-2.68-1-4.9-1.94-7.59-2.91-2.71,7.48-1.47,15,1.14,22l-5.31-1.5c-2.24,7.73-.68,15.14,1.12,22.62l-3.61-1c-2.36,4.22-1.47,9.1-.78,13.73.14,1,.2,2.53-.32,2.84-2.56,1.54-2.78-1.17-2.14,6.15.35,4.09,1.22,8.1,1.85,12.15-1.32,1.42-2.82,3.22-2.61,4.79.67,4.92,2,9.75,3.06,14.61.18.81.49,1.59.81,2.61-2.69.22-4.24,1.47-3.64,3.88,1,4,2.33,7.83,3.51,11.75a7.72,7.72,0,0,1,.52,2.41c-.06,1.7-.71,3.46-.43,5.08q1.56,9,3.61,17.83a73.26,73.26,0,0,0,2.73,7.81l3.25.92c.78-1.61,2.42-3.07,3.44-4.53,2.71-3.89,11-11,12.28-15.07.86-2.92.34-2.51,1.85-4.94s4.88-4.5,6-7.14c.46-1.1-2.22-1.06-1.53-2,3.11-4.15,6.35-8.21,9.77-12.58l-3.75-1.84c5-4.84,9.12-10,11.77-16.19l-3.64-2.06c.48-.79.83-1.46,1.25-2.07,2.39-3.48,5-6.84,7.11-10.48a13,13,0,0,0,1.94-4.81c-.33-.07-2-.5-2.29-.57C502.42,218.51,507,215.76,507.27,210.2Zm-53,116.55h.2l-.27-.1ZM425.14,441.16c1.93.19,3.72.32,5.63.5-2.79,7.59-7.43,14.41-5.68,22.32h5.79c-2.3,7.18-5.65,13.65-4.44,21.55h9c-3.37,7.19-3.05,14.83-1,22.26,2.27-.6,4-1.11,6.08-1.66-1.4,5.21-2.49,9.78-.81,14.8l7-2.67c.58,9.9.82,14,1.32,17.94,1-.44,4.2-.14,5-.49l6.45,34.62a216.71,216.71,0,0,0,9.5-35.08l4.68,1.34c1-6.71,2-13.05,3-19.45l6,2.5a35.31,35.31,0,0,0-.48-23.66l9.22,3.8c2-7.65-.53-14.31-3.28-21.41,3,.22,5.62.57,8.68.79.6-8.5-2.87-15.89-7.61-22.36h5.91c.05-8.62-3.72-15.8-7.74-23h4c1.2-5-1.14-9.8-3.2-14.37-.43-1-.95-2.55-.5-3,2.18-2.32,3.21.4.42-7-1.56-4.11-3.63-8-5.46-12,.94-1.84,2-4.13,1.29-5.69-2.12-4.87-4.88-9.47-7.41-14.16-.43-.78-1-1.5-1.59-2.46,2.7-1,3.93-2.75,2.62-5.05-2.17-3.8-4.7-7.4-7.05-11.09a8.55,8.55,0,0,1-1.25-2.34c-.43-1.77-.28-3.77-1-5.35-2.8-5.86-5.79-11.64-8.91-17.33a81.13,81.13,0,0,0-5.1-7.25h-3.61c-.33,1.89-1.6,3.88-2.22,5.68-1.66,4.79-8.19,14.51-8.26,19.11,0,3.26.37,2.68-.47,5.63s-3.71,6.06-4.07,9.1c-.15,1.26,2.6.44,2.16,1.59-2,5.19-4.15,10.31-6.4,15.81l4.4.81c-3.75,6.44-6.5,12.91-7.41,20.11l4.35,1.07c-.25.95-.42,1.74-.68,2.49-1.45,4.29-3.15,8.5-4.27,12.87a13.93,13.93,0,0,0-.59,5.52c.36,0,2.16-.05,2.52-.08C427.71,431.19,423.82,435.34,425.14,441.16Zm33.53-120.58-.07-.07.06.13A.13.13,0,0,1,458.67,320.58Zm49.2-26.21-1.62-2.13c3.54-1.43,7.4-2,9.6-5.1l-1.84-2c3.24-1.48,6.57-2.36,8.94-5.3l-2.86-3.15a14.82,14.82,0,0,0,8.08-6.73c-.93-.6-1.66-1-2.51-1.59,2.26-1.17,4.2-2.24,5.42-4.42-1.12-.58-2.1-1.07-3.15-1.6,3.27-3.35,4.62-4.73,5.84-6.16-.48-.22-1.38-1.42-1.76-1.6l10-13.25a101.91,101.91,0,0,0-15.27,7.83l-1-2.06L518,252.22c-.27-.74-.6-1.67-1-2.9a16.73,16.73,0,0,0-8.12,7.69c-.56-1.56-1-2.89-1.6-4.43-3.3,1.73-4.83,4.74-6.43,7.95-.89-1.13-1.59-2.14-2.48-3.27-3.16,2.49-4.64,6.05-5.4,9.76L491.08,265c-3,2.72-4.34,6.32-5.57,10-.51-.56-.88-1-1.27-1.4-2.14,1.18-3.07,3.51-4,5.68-.2.46-.59,1.14-.89,1.14-1.51,0-.89-1.25-2.56,2.07-.94,1.85-1.64,3.8-2.46,5.71-.94.26-2.07.63-2.4,1.36-1,2.29-1.75,4.71-2.58,7.09-.14.4-.22.81-.36,1.34-1.21-.63-2.21-.5-2.59.69-.64,2-1.09,4-1.63,6a4.18,4.18,0,0,1-.42,1.17,12.91,12.91,0,0,0-1.54,2.07c-1.15,2.84-2.23,5.72-3.22,8.62a36.4,36.4,0,0,0-.91,4.08l1.15,1.26a20.6,20.6,0,0,1,2.68-1c2.21-.94,7.67-1.75,9.3-3.19,1.15-1,.82-1,2.12-1.62s3.29-.63,4.47-1.47c.49-.35-.67-1-.13-1.26,2.44-1,4.92-1.83,7.55-2.8l-1.11-1.79a25.11,25.11,0,0,0,9.37-3.8l-1-1.86c.41-.22.74-.41,1.08-.56,2-.85,4-1.6,5.86-2.6a6.44,6.44,0,0,0,2.11-1.55c-.12-.11-.7-.73-.83-.85C503.57,296.65,506.26,296.68,507.87,294.37Zm-46.32,24-.08.12.08-.06Zm38.32,29.78c.14-.1.82-.62,1-.71A6.44,6.44,0,0,0,499,345.6c-1.69-1.29-3.56-2.35-5.35-3.51-.32-.21-.61-.45-1-.73l1.29-1.67a24.85,24.85,0,0,0-8.64-5.27l1.39-1.59c-2.44-1.38-4.74-2.64-7-4-.5-.29.76-.8.33-1.22-1-1-3-1.34-4.17-2.18s-.85-.75-1.83-1.94c-1.37-1.68-6.64-3.37-8.66-4.66a19.83,19.83,0,0,1-2.48-1.45l-1.34,1.06a36.87,36.87,0,0,0,.24,4.18c.51,3,1.1,6,1.78,9a13.83,13.83,0,0,0,1.18,2.29,3.77,3.77,0,0,1,.23,1.22c.21,2.06.33,4.13.64,6.18.19,1.24,1.15,1.52,2.45,1.1.05.54.06,1,.13,1.37.44,2.49.77,5,1.41,7.42.21.78,1.26,1.32,2.15,1.73.49,2,.86,4.06,1.49,6,1.12,3.54.7,2.23,2.2,2.45.3,0,.57.78.69,1.27.58,2.29,1.12,4.74,3,6.26l1.48-1.18c.62,3.84,1.33,7.6,3.87,10.78l2.19-1.73c.14,3.78,1,7.53,3.74,10.5,1.07-1,1.92-1.85,3-2.83,1.06,3.43,2.08,6.64,5.06,8.89l2.3-4.11a16.71,16.71,0,0,0,6.76,8.9c.63-1.14,1.12-2,1.5-2.69l6.8,6.32c.64-.89,1-1.41,1.34-1.87A101,101,0,0,0,531,410.18l-7.77-14.7c.41-.11,1.49-1.15,2-1.29-1-1.62-2.09-3.19-4.77-7l3.36-1.06c-.85-2.35-2.59-3.72-4.64-5.24.94-.41,1.72-.73,2.75-1.17a14.84,14.84,0,0,0-6.9-7.95l3.34-2.64c-1.87-3.28-5-4.7-8-6.68l2.14-1.7c-1.67-3.44-5.39-4.61-8.65-6.59.66-.64,1.28-1.21,1.94-1.84C504.64,349.75,502,349.35,499.87,348.18Zm-54.66-25.26s70.6-1.59,102.83,8.37A93.31,93.31,0,0,0,531.67,320c-8.77-4.56-82.74-8.12-82.74-8.12Zm-18-35.67-4.74,58.22,46,3.75L473.17,291Z"/>
    </g>
  </g>
</svg>
