<svg xmlns="http://www.w3.org/2000/svg" xmlns:xlink="http://www.w3.org/1999/xlink" viewBox="0 0 2468.05 1126.05">
  <defs>
    <style>
      .logo-cls-1 {
        fill: none;
      }

      .logo-cls-2 {
        clip-path: url(#clip-path);
      }

      .logo-cls-3 {
        fill: #ddb263;
      }

      .logo-cls-4 {
        fill: #0d2021;
      }

      .logo-cls-5 {
        fill: #fff;
      }
    </style>
    <clipPath id="clip-path">
      <polygon class="logo-cls-1" points="559.37 165.29 221.68 750.18 897.05 750.18 559.37 165.29"/>
    </clipPath>
  </defs>
  <title>Asset 4</title>
  <g id="Layer_2" data-name="Layer 2">
    <g id="Layer_1-2" data-name="Layer 1">
      <g class="logo-cls-2">
        <g>
          <g>
            <g>
              <path class="logo-cls-3" d="M963.44,383c0,.21.07.39.1.56l-.2-.33A2.29,2.29,0,0,1,963.44,383Z"/>
              <path class="logo-cls-3" d="M744.46,448.11c1.6,3.39,3,6.56,4.63,9.93-15.37,2.86-30.62,1.5-42.82,12.69l5.72,9.63c-14.34,3.38-27.87,3.89-40.6,14.2l8.91,15c-14.48,1-27.34,9.42-37.64,20.19,3.25,3.17,6,5.47,8.94,8.37-10,2.83-18.63,5.5-25.31,13.25,4.05,3.21,7.61,5.95,11.39,8.94-15.87,10.78-22.38,15.19-28.47,19.93,1.74,1.29,4.4,6.84,5.79,7.86l-51.14,45c22.87-4.58,45.43-10.43,67.69-18.92.59,2.2,1.27,4.77,2.41,9.11l35.26-14.3c.46,3.18,1,7.2,1.79,12.48,15.64-3.78,28.12-11.1,38.85-24.21,1,6.72,1.83,12.48,2.8,19.09,14.69-4.25,23.26-15.06,32.32-26.64,2.65,5.28,5,9.64,7.7,14.94,14.72-7.41,22.65-19.94,30-35l5.84,9.82c14-8.21,21.4-21.11,29.49-35l4,6.66c10.48-3.53,15.27-11.66,20.83-19.59,1.17-1.67,3.35-4.14,4.58-3.87,6,1.34,2.55,5.71,12-6.2,5.28-6.65,9.7-13.93,14.53-20.93,4-.26,8.83-.82,10.74-3.49,6-8.35,10.91-17.48,16.2-26.33.88-1.47,1.53-3.08,2.51-5.08,4.36,3.49,8.46,3.82,11-.65,4.17-7.36,7.64-15.11,11.45-22.68a16.3,16.3,0,0,1,2.65-4.37c2.51-2.47,6-4.2,7.87-7,7-10.46,13.72-21.19,20.08-32,2.68-4.55,4.42-9.7,7.12-15.71l-3.57-6c-3.11,1.11-8.15,1.24-11.75,2-9.61,2-32.27.79-40,5.23-5.45,3.15-4.12,3.29-9.84,4.8s-13.76-.16-19.16,2.24c-2.26,1,1.81,4.76-.52,5.16-10.59,1.83-21.25,3.32-32.61,5l3,8.11c-14.41.15-27.88,2-40.74,7.58,1,3.16,1.68,5.52,2.53,8.29-1.84.52-3.31,1-4.83,1.34-8.55,1.83-17.24,3.16-25.6,5.65-3.18.94-7,2.1-9.76,4.46.4.58,2.23,3.54,2.63,4.12C763.58,442.51,752.83,440.16,744.46,448.11Z"/>
            </g>
            <g>
              <path class="logo-cls-3" d="M960.53,376.31l-.12.31.32-.36Z"/>
              <path class="logo-cls-3" d="M806.92,262c-1.47,2.78-2.77,5.39-4.23,8.15-9.65-8.88-17-20.06-30-22.33-1.4,3.41-2.45,6-3.58,8.68-9.36-7.88-17-16.9-29.59-20-1.88,4.57-3.55,8.63-5.57,13.52-8.68-9.51-20.36-13.74-32.77-15.24-.49,3.78-.82,6.69-1.27,10.15-7-5.32-13.13-9.77-21.7-10.36-.12,4.33-.2,8.09-.31,12.12-15.22-5.23-21.47-7.39-27.72-9.09,0,1.81-2.38,6.39-2.37,7.83l-55.91-11.73a351.76,351.76,0,0,0,46.75,35.94c-1.19,1.49-2.58,3.24-4.91,6.19l27.33,16.49-7.48,7.47c10.4,8.6,21.6,13.3,35.8,13.92L678,325.17c10.24,7.73,21.81,8.05,34.15,8.31-2.22,4.44-4.32,8.08-6.54,12.53,12.37,6.16,25.6,5.52,38.23,2.42-1.44,3.48-2.38,5.75-3.65,8.85,12.89,5.42,26,4.2,39.27,2.6-1,2.41-1.7,4.13-2.48,6,6.8,4.9,15.41,4.34,23.53,4.09,1.71-.06,4.41.14,4.85,1.11,2.13,4.72-2.58,4.57,10.17,4.93,7.13.2,14.22-.5,21.35-.77,2.18,2.55,5,5.5,7.74,5.45,8.62-.17,17.22-1.47,25.82-2.37,1.43-.15,2.83-.52,4.67-.87-.15,4.69,1.69,7.61,6,7.06,7-.91,14-2.48,21-3.72a13.54,13.54,0,0,1,4.26-.42c2.92.44,5.84,1.91,8.68,1.75q15.78-.9,31.5-2.66c4.4-.5,8.71-1.92,14-3.17l2.23-5.42c-2.62-1.66-4.82-4.79-7.13-6.84-6.17-5.45-16.71-21.25-23.57-24.19-4.86-2.08-4.25-1.1-8.15-4.18s-6.79-9.32-11.13-11.74c-1.8-1-2.27,3.62-3.71,2.25-6.56-6.19-12.91-12.59-19.77-19.36l-3.93,6.1C878,303.32,870,295.2,859.79,289.38l-4.29,5.87c-1.27-1-2.35-1.71-3.33-2.56-5.53-4.82-10.79-10-16.67-14.36-2.23-1.65-4.93-3.64-7.9-4.3-.19.56-1.26,3.27-1.44,3.83C820.29,272,816.46,263.59,806.92,262Z"/>
            </g>
            <g>
              <path class="logo-cls-3" d="M965.72,386.79l-.45.15.33,0Z"/>
              <path class="logo-cls-3" d="M999.36,550.08c.58.07,3.5.21,4.08.28.63-3-.05-6.26-.63-9-1.54-7.15-4-14.09-6.14-21.12-.37-1.25-.59-2.53-.95-4.1l7.12-1.46c-1.05-11.72-5.11-22.38-10.8-33.05l7.18-1c-3.3-9.06-6.5-17.49-9.4-26-.65-1.88,3.76-.39,3.59-2.45-.41-4.95-4.88-10.24-6-15s-.55-3.86-.43-9.15c.17-7.46-9.82-23.61-12.22-31.48-.9-2.95-2.84-6.26-3.26-9.34L965.6,387c-3.34,4.31-6.43,7.64-8.71,11.44Q948.78,412,941.39,426c-1.32,2.52-1.2,5.77-2,8.62a13.73,13.73,0,0,1-2.15,3.7c-4,5.85-8.35,11.52-12.1,17.55-2.27,3.66-.38,6.54,3.94,8.35-1.08,1.53-2,2.65-2.73,3.89-4.39,7.45-9.14,14.73-12.87,22.51-1.2,2.48.33,6.26,1.74,9.3-3.21,6.37-6.79,12.53-9.57,19.1-5,11.75-3.14,7.4.27,11.3.69.8-.25,3.34-1,4.87-3.61,7.29-7.69,14.89-6,23.11l6.5.24c-7,11.41-13.51,22.83-13.94,36.8l9.57.36c-8.06,10.2-14.14,22-13.68,35.78,5-.17,9.16-.57,14.12-.74-4.89,11.33-9.4,22-6.62,34.51L910,659.58c-5.34,13.17-5.71,25.31-2.21,38.34l9.91-3.7c1.2,10.43,2.39,20.77,3.64,31.71L929,724a351.37,351.37,0,0,0,13.28,57.45l12.54-55.73c1.31.61,6.47.33,8.12,1.09,1-6.39,1.67-13,3.23-29l11.16,4.75c3-8,1.54-15.52-.41-24,3.33,1,6.11,1.94,9.75,3.06,3.8-11.92,4.79-24.29-.25-36.15L1001,646c2.44-12.74-2.6-23.42-5.88-35.21l9.39.35c3.3-12.7-3.8-24.06-7.88-36.52,3.12-.18,6-.29,9.17-.47C1008.32,564.83,1002.27,557.86,999.36,550.08Z"/>
            </g>
            <g>
              <path class="logo-cls-3" d="M960,367.43l-.18.07h.29Z"/>
              <path class="logo-cls-3" d="M949.19,251.67c-1.85.47-3.55.94-5.39,1.4.08-8,2.13-15.83-2.1-22.58l-5.38,1.91c-.24-7.42.73-14.53-3-21.46l-8.36,3c.76-7.78-2.08-14.77-6.44-21-1.91,1.32-3.36,2.35-5.1,3.55-.42-5.29-.93-9.89-4.14-14l-5.6,4.79c-3.82-9-5.39-12.69-7.16-16.2-.81.74-3.85,1.52-4.5,2.11l-17.42-30a213.22,213.22,0,0,0,2.78,35.69l-4.79.3c1.27,6.56,2.46,12.77,3.67,19l-6.41-.33a34.85,34.85,0,0,0,8.27,21.79l-9.82-.48c.68,7.76,5.24,13.11,10.13,18.78-2.9.8-5.4,1.33-8.31,2.13,2.25,8.09,7.91,13.8,14.44,18.23l-5.47,2c2.8,8,8.67,13.43,14.78,18.77l-3.72,1.32c.55,5.07,4.3,8.72,7.72,12.28.72.75,1.72,2.05,1.47,2.64-1.27,2.88-3.11.69,1.91,6.59,2.8,3.3,6,6.21,9,9.32-.26,2-.46,4.48.69,5.7,3.57,3.83,7.65,7.17,11.56,10.69.65.58,1.38,1.07,2.29,1.75-2.18,1.84-2.75,3.86-.76,5.56,3.26,2.81,6.8,5.31,10.2,8a8.07,8.07,0,0,1,1.92,1.75c1,1.5,1.51,3.41,2.74,4.63q6.81,6.75,14,13.12a78.41,78.41,0,0,0,7.12,5l3.36-1.19c-.32-1.86.2-4.13.18-6,0-5,2.8-16.17,1.34-20.46-1-3-1.23-2.37-1.42-5.38s1.43-6.85.77-9.79c-.28-1.22-2.56.45-2.53-.76.13-5.47.44-10.94.7-16.79l-4.34.71c1.34-7.22,1.75-14.13.22-21.11l-4.39.45c-.08-1-.18-1.75-.19-2.54-.07-4.45.11-8.93-.3-13.35a13.51,13.51,0,0,0-1.27-5.32c-.33.15-2,.77-2.32.91C950.1,261.78,952.33,256.64,949.19,251.67Z"/>
            </g>
            <g>
              <path class="logo-cls-3" d="M974.85,384.27l.17-.12-.3.08Z"/>
              <path class="logo-cls-3" d="M1019.78,500.4c1.77-1,3.39-2,5.15-3,2.23,8.23,2.42,16.93,8.75,22.66l5-3.54c2.42,7.58,3.49,15.18,9.37,21.24,2.61-1.87,4.94-3.52,7.74-5.51,1.49,8.24,6.44,14.61,12.76,19.74,1.58-1.91,2.76-3.4,4.21-5.15,2,5.33,3.84,9.93,8.36,13.22l4.37-6.57c6.55,8.15,9.25,11.51,12.1,14.61.62-1,3.52-2.69,4-3.49l26.7,25.82a228.69,228.69,0,0,0-13.28-36l4.85-1.71-9.33-18.53,6.7-1.53a37.33,37.33,0,0,0-14.88-20l10.26-2.37c-3-7.8-9.22-12-15.91-16.39,2.75-1.68,5.17-2.95,7.93-4.63-4.68-7.68-12.18-11.91-20.2-14.57l5.08-3.61c-5.23-7.44-12.86-11.32-20.71-15l3.45-2.45c-2-5.06-7-7.73-11.54-10.4-1-.56-2.38-1.61-2.28-2.29.46-3.34,3-1.62-3.89-6.24-3.85-2.58-8-4.65-12-7-.33-2.16-.84-4.75-2.38-5.68-4.8-2.89-10-5.15-15-7.64-.84-.41-1.74-.69-2.87-1.14,1.71-2.52,1.71-4.77-.83-5.94-4.19-1.94-8.56-3.49-12.84-5.22a8.88,8.88,0,0,1-2.5-1.25c-1.45-1.26-2.54-3.07-4.17-4q-9-5-18.25-9.44a85.81,85.81,0,0,0-8.81-3.12l-3.11,2.21c.87,1.83,1,4.31,1.56,6.24,1.51,5.13,1.84,17.48,4.59,21.47,2,2.83,2,2.08,3,5.13s.51,7.47,2.06,10.3c.64,1.19,2.5-1.19,2.82.06,1.47,5.67,2.74,11.4,4.17,17.5l4.28-2c.72,7.83,2.31,15.07,5.92,21.82l4.4-1.75c.36,1,.7,1.76.94,2.57,1.37,4.57,2.48,9.23,4.2,13.67a14.44,14.44,0,0,0,2.86,5.11c.29-.25,1.82-1.37,2.12-1.61C1015.89,490.25,1015.09,496.2,1019.78,500.4Z"/>
            </g>
            <g>
              <path class="logo-cls-3" d="M974.89,376.26l-.1,0,.13.08Z"/>
              <path class="logo-cls-3" d="M1001.16,323.66c-.92-.3-1.78-.55-2.69-.85,2.16-3.39,5.14-6.23,5.13-10.26l-2.82-.61c1.88-3.25,4.19-6.05,4.44-10l-4.39-.95c2.41-3.14,3.06-6.9,2.84-10.73l-3.14.16c1.24-2.39,2.25-4.49,2-7.12l-3.68.56c.76-4.88,1.08-6.88,1.26-8.87-.55.11-2.07-.37-2.5-.29l.53-17.53a106.22,106.22,0,0,0-8.34,16.07l-2.14-1.15c-1.21,3.16-2.35,6.14-3.51,9.15l-2.66-1.86a17.62,17.62,0,0,0-2.28,11.57c-1.43-1-2.66-1.85-4.08-2.82-1.78,3.5-1.25,7-.67,10.76-1.46-.43-2.67-.87-4.14-1.3-1.19,4.08-.28,8,1.34,11.69l-2.88-.63c-.94,4.19.14,8.09,1.34,12l-2-.42c-1.12,2.32-.49,4.89,0,7.33.11.52.19,1.34-.07,1.53-1.31.9-1.53-.54-.94,3.34.32,2.16.91,4.27,1.38,6.41-.65.8-1.39,1.8-1.23,2.63.52,2.6,1.37,5.13,2.11,7.68.13.42.31.83.52,1.37-1.43.2-2.21.92-1.81,2.18.65,2.08,1.5,4.09,2.26,6.14a4.15,4.15,0,0,1,.35,1.27,13.72,13.72,0,0,0-.06,2.71q1.13,4.72,2.51,9.38a39.24,39.24,0,0,0,1.71,4.07l1.76.38a20.94,20.94,0,0,1,1.68-2.53c1.32-2.15,5.52-6.19,6-8.43.37-1.58.1-1.34.83-2.69s2.44-2.55,2.94-4c.21-.6-1.22-.49-.88-1,1.52-2.32,3.11-4.58,4.78-7l-2-.85a26.42,26.42,0,0,0,5.73-9l-2-1c.22-.43.39-.8.59-1.14,1.16-1.93,2.44-3.8,3.44-5.81a6.88,6.88,0,0,0,.88-2.63c-.18,0-1.06-.2-1.24-.22C998.85,328.24,1001.18,326.63,1001.16,323.66Z"/>
            </g>
            <g>
              <path class="logo-cls-3" d="M976,372.63a.71.71,0,0,1,0,.14l0-.09A.1.1,0,0,0,976,372.63Z"/>
              <path class="logo-cls-3" d="M1027.18,374.79c.06-.17.32-1,.38-1.19a6.62,6.62,0,0,0-2.72-.49c-2.24-.07-4.5.16-6.75.26-.4,0-.8,0-1.28,0,0-.74.05-1.38.09-2.23a26.58,26.58,0,0,0-10.65.75c.08-.75.13-1.25.23-2.21-3,.31-5.7.63-8.46.86-.61.05.17-1.15-.46-1.25-1.5-.25-3.41.68-4.92.68s-1.19-.13-2.75-.56c-2.21-.6-7.77,1.16-10.29,1.29a20.69,20.69,0,0,1-3,.28l-.5,1.73a41.3,41.3,0,0,0,2.76,3.44q3.43,3.44,7,6.67A13.11,13.11,0,0,0,988.3,384a4.31,4.31,0,0,1,.94.92c1.44,1.64,2.81,3.35,4.32,4.91.92,1,1.93.61,2.78-.54.38.43.64.79,1,1.1,1.89,1.86,3.71,3.82,5.74,5.51.65.54,1.89.37,2.91.18,1.65,1.43,3.22,2.95,5,4.27,3.13,2.36,2,1.49,3.39.77.28-.15,1,.32,1.37.66,1.9,1.62,3.86,3.4,6.43,3.52.17-.6.33-1.15.56-1.91,2.87,2.92,5.79,5.72,9.92,6.89.29-1,.5-1.71.82-2.82,2.43,3.16,5.48,5.85,9.64,6.74.32-1.49.51-2.77.83-4.25,3,2.29,5.85,4.44,9.78,4.54-.18-1.71-.35-3.2-.54-4.94a17.65,17.65,0,0,0,11.25,3.52c-.15-1.37-.27-2.41-.36-3.23l9.72,1.28c0-1.15,0-1.84,0-2.42a107.49,107.49,0,0,0,18.1.32l-15.66-7.89c.28-.34.58-1.9.93-2.34-1.83-.78-3.74-1.46-8.4-3.12.75-1,1.45-1.9,2.25-3-2.17-1.5-4.5-1.61-7.19-1.67.55-.92,1-1.67,1.64-2.68-3.27-2-6.88-3.23-10.78-2.62.45-1.56.82-2.85,1.25-4.31-3.61-1.68-7.17-1-10.93-.87.26-.87.49-1.69.81-2.77-3.54-1.94-7.45-.67-11.47-.38.18-.95.37-1.82.55-2.77C1032.23,373.22,1029.71,374.5,1027.18,374.79Z"/>
            </g>
            <path class="logo-cls-3" d="M964.75,386.49s59.71-44.52,93.5-55.66a98.12,98.12,0,0,0-21,.3c-10.34,1.44-76.09,43.6-76.09,43.6Z"/>
            <rect class="logo-cls-3" x="939.8" y="350.07" width="48.64" height="61.61" transform="translate(-59.14 546.76) rotate(-30.76)"/>
          </g>
          <g>
            <g>
              <path class="logo-cls-3" d="M189.74,854.18l-.25-.21.24.42A1.48,1.48,0,0,0,189.74,854.18Z"/>
              <path class="logo-cls-3" d="M343,739.74c-2.24-2.2-4.29-4.28-6.52-6.47,11.25-6.7,23.64-10,30-22.39L359.22,705C369.51,698.16,380,693.83,387,682l-11.35-9.19c11.09-5,18.76-15.33,23.74-26.78-3.48-1.55-6.27-2.57-9.45-4,7.07-5.13,13-9.73,16.06-17.76-4.12-1.35-7.71-2.47-11.55-3.73,9.36-13.07,13.19-18.42,16.61-23.92-1.75-.51-5.45-4.1-6.84-4.5L431.44,542a351.21,351.21,0,0,0-47.75,34.5c-1.1-1.56-2.38-3.39-4.53-6.47l-23.58,21.47-5-9.29c-11.2,7.5-18.89,16.88-23.53,30.29l-7.73-14.19c-10.32,7.59-13.92,18.58-17.69,30.31-3.62-3.38-6.76-6.12-10.39-9.52-9.42,10.1-12,22.25-13.47,36.23l-7.44-6c-8.61,10.5-10.71,22.8-13,36.06l-5-4.09c-7.21,5.81-8.63,13.59-10.7,21.44-.44,1.65-1.43,4.23-2.48,4.37-5.13.7-3.66-3.75-7.64,8.35-2.22,6.77-3.58,13.77-5.36,20.67-3.06,1.37-6.7,3.21-7.43,5.86-2.3,8.3-3.51,16.9-5.1,25.4-.26,1.41-.31,2.86-.5,4.72-4.44-1.48-7.76-.55-8.45,3.69-1.15,7-1.63,14.11-2.43,21.16a13.51,13.51,0,0,1-.82,4.2c-1.25,2.67-3.49,5-4.14,7.81-2.44,10.24-4.65,20.64-6.52,31-.78,4.36-.65,8.9-1,14.42l4.55,3.68c2.13-1.77,6-3.34,8.66-5,7-4.35,25.15-10,29.92-15.7,3.38-4.06,2.28-3.78,6.35-6.63s10.86-3.87,14.41-7.32c1.48-1.44-2.81-3.22-1.09-4.21,7.8-4.51,15.75-8.76,24.18-13.4l-4.71-5.51c11.28-4.29,21.34-9.64,29.83-17.77l-4.39-5.78c1.29-.94,2.31-1.76,3.41-2.46,6.19-3.91,12.64-7.48,18.49-11.86,2.22-1.66,4.89-3.68,6.38-6.34-.48-.33-2.78-2.13-3.26-2.47C329.63,749.68,338.76,748.41,343,739.74Z"/>
            </g>
            <g>
              <path class="logo-cls-3" d="M194,858.83v-.28l-.16.38Z"/>
              <path class="logo-cls-3" d="M347.89,904.21c.35-2.62.62-5,1-7.64,10.16,4.19,19.2,10.84,30,8.88.12-3.09.21-5.4.3-7.87,9.64,3.48,18.26,8.36,29.06,7.12.15-4.14.29-7.81.46-12.24,9.58,5,20,4.9,30.18,2.48-.7-3.11-1.3-5.49-1.94-8.34,7,2.16,13.16,3.87,20.06,1.85-1.16-3.44-2.18-6.42-3.27-9.62,13.48-.3,19-.41,24.43-.88-.53-1.43,0-5.72-.4-6.85l47.36-7A294.22,294.22,0,0,0,478,849.41c.49-1.52,1.08-3.3,2.06-6.29l-26.27-5c.94-2.05,2.14-4.65,3.71-8.05a48,48,0,0,0-32.17-.56l5.64-12.33c-10.29-3.11-19.48,0-29.25,3.36.45-4.13,1.05-7.6,1.51-11.75-11.52-1.25-21.73,3.09-30.76,9.19.12-3.16.2-5.22.3-8-11.71-.52-21.66,4.23-31.63,9.34.08-2.19.14-3.74.21-5.45-6.77-1.89-13.38,1.05-19.69,3.6-1.33.54-3.51,1.17-4.13.54-3.05-3.1.7-4.35-9.43-.93-5.66,1.91-11,4.52-16.56,6.79-2.46-1.37-5.52-2.88-7.67-2-6.73,2.63-13.11,6.15-19.62,9.35-1.08.53-2.07,1.23-3.42,2-1.24-3.73-3.53-5.49-6.73-3.82-5.27,2.75-10.28,6-15.42,9a11.59,11.59,0,0,1-3.23,1.56c-2.43.5-5.14.19-7.33,1.14q-12.15,5.28-24,11.22c-3.33,1.67-6.3,4-10.11,6.56l-.19,4.91c2.55.54,5.19,2.37,7.6,3.31,6.43,2.5,19.29,11.86,25.54,12.18,4.42.23,3.66-.36,7.62.93s8,5.36,12.15,6c1.71.27.74-3.5,2.27-2.84,6.95,3,13.8,6.16,21.16,9.49.57-2.58.87-3.92,1.32-5.93,8.56,5.42,17.21,9.48,26.94,11.09.63-2.23,1.11-3.9,1.67-5.86,1.28.4,2.34.67,3.36,1,5.74,2.19,11.38,4.73,17.26,6.46,2.24.66,4.94,1.43,7.47,1.09,0-.49,0-2.93,0-3.43C334.48,900.21,339.92,905.69,347.89,904.21Z"/>
            </g>
            <g>
              <path class="logo-cls-3" d="M186.84,852.09l.32-.25-.26.09Z"/>
              <path class="logo-cls-3" d="M113.07,733.46c-.48.11-2.82.84-3.3,1,.37,2.53,1.86,4.91,3.1,6.88,3.28,5.18,7.27,9.9,10.95,14.83.65.87,1.2,1.81,1.93,2.94l-5.17,3.21c4.22,8.92,10.51,16.12,18.07,22.86l-5.34,2.9c5.22,6.16,10.18,11.87,14.94,17.73,1.05,1.29-2.85,1.4-2.12,3,1.75,3.77,6.81,6.64,9.11,10s1.55,2.88,3,7.07c2,5.91,14.56,15.71,18.73,21.21,1.57,2.06,4,4.09,5.27,6.39l4.67-1.52c1.37-4.36,2.83-7.87,3.52-11.52q2.46-13,4.2-26.15c.32-2.37-.73-4.9-.91-7.37a11.54,11.54,0,0,1,.61-3.53c1.49-5.77,3.23-11.48,4.43-17.31.73-3.54-1.59-5.25-5.52-5.42.4-1.51.8-2.66,1-3.85,1.29-7.13,2.92-14.24,3.6-21.43.22-2.3-2.08-4.82-4.07-6.81.67-5.94,1.71-11.82,2-17.79.5-10.68.33-6.73-3.48-8.81-.77-.42-.77-2.7-.62-4.12.72-6.77,1.73-13.93-1.94-19.92l-5.19,1.69c2.18-11,4-21.86.3-33l-7.63,2.5c3.39-10.36,4.75-21.37.38-32.1-3.86,1.57-7,3.1-10.88,4.67.56-10.32,1-20-4.8-29-3.57,3-6.68,5.71-10.3,8.82a48.09,48.09,0,0,0-9.38-30.78l-6.72,5.77-12.06-23.87L118,576.28A295.11,295.11,0,0,0,90.86,535l6.29,47.46c-1.21-.1-5.18,1.61-6.7,1.49,1,5.33,2.45,10.69,5.87,23.73l-10.15-.5c0,7.2,3.29,12.65,7.29,18.79-2.92.16-5.37.24-8.56.42.47,10.47,3.28,20.49,10.68,28.34L83.93,658.5c1.78,10.72,8.84,17.66,14.83,26l-7.48,2.45c1.08,10.94,10,17.81,16.78,26.43-2.4,1-4.66,2-7.07,3C101.74,724.46,108.52,728.19,113.07,733.46Z"/>
            </g>
            <g>
              <path class="logo-cls-3" d="M196.94,865.66l.13-.1-.23.08Z"/>
              <path class="logo-cls-3" d="M239,953.54c1.33-.9,2.53-1.77,3.84-2.67,2.24,6.29,2.91,13.07,8.2,17.15l3.67-3.06c2.35,5.77,3.64,11.64,8.59,16L269,976.2c1.66,6.33,5.91,11,11.15,14.62,1.11-1.58,1.95-2.82,3-4.27,1.87,4,3.6,7.51,7.32,9.81l3-5.39c5.61,6,7.92,8.42,10.32,10.66.43-.82,2.59-2.31,2.93-3l22.39,18.53a177.5,177.5,0,0,0-12.53-27.26l3.68-1.63-8.4-13.89,5.13-1.6a29.13,29.13,0,0,0-12.82-14.74l7.86-2.47c-2.78-5.9-7.91-8.79-13.4-11.83,2-1.47,3.86-2.61,5.91-4.09-4.12-5.7-10.22-8.55-16.64-10.14l3.74-3.13c-4.53-5.49-10.71-8-17.07-10.47,1-.85,1.75-1.45,2.54-2.12-1.9-3.82-5.9-5.61-9.62-7.42-.78-.37-1.95-1.11-1.92-1.64.15-2.63,2.24-1.45-3.41-4.63-3.17-1.78-6.53-3.15-9.8-4.71-.38-1.67-.94-3.66-2.19-4.29-3.93-2-8.1-3.42-12.19-5-.68-.27-1.4-.44-2.31-.72,1.18-2.07,1-3.82-1-4.58-3.39-1.26-6.89-2.21-10.34-3.3a7,7,0,0,1-2-.82c-1.21-.89-2.18-2.25-3.5-2.85-4.87-2.22-9.82-4.31-14.81-6.26a66.69,66.69,0,0,0-7.06-1.9l-2.29,1.91c.79,1.38,1,3.31,1.59,4.78,1.49,3.91,2.49,13.52,4.88,16.47,1.7,2.09,1.66,1.5,2.68,3.81s.85,5.81,2.23,7.92c.57.89,1.88-1.09,2.21-.13,1.48,4.34,2.82,8.73,4.31,13.4l3.22-1.81c1,6.06,2.71,11.62,5.94,16.66L225,927c.34.74.65,1.33.89,2,1.35,3.48,2.5,7,4.1,10.41a11.46,11.46,0,0,0,2.54,3.81c.22-.21,1.35-1.18,1.56-1.39C235.37,945.86,235.1,950.55,239,953.54Z"/>
            </g>
            <g>
              <path class="logo-cls-3" d="M180.4,856.72l-.1.15.21-.16Z"/>
              <path class="logo-cls-3" d="M111.41,778.44c-1.1,1.32-2.08,2.56-3.18,3.87-4.14-5.83-6.81-12.62-13.45-15.28l-2.89,4.22c-4.09-5.25-7.14-10.92-13.51-14l-4.5,6.57c-3.56-6-9.3-9.62-15.75-11.81-.69,2-1.19,3.47-1.82,5.26-3.1-3.61-5.9-6.69-10.4-8-.55,2.3-1,4.29-1.53,6.43-7.52-4.5-10.61-6.36-13.75-8-.2,1-2,3.13-2.15,3.91L0,739.13a191.77,191.77,0,0,0,20.87,24.43l-3.32,2.74,12.71,11.87-4.83,3.15a31.32,31.32,0,0,0,17.51,11.45l-7.37,4.83c4.58,5.28,10.71,6.75,17.26,8.28-1.68,2.11-3.21,3.82-4.9,5.94,5.9,4.68,13,5.83,20.11,5.6l-3,4.31c6.27,4.34,13.39,5.17,20.64,5.81l-2,2.93c3.07,3.38,7.73,4.06,12.09,4.83.91.17,2.33.58,2.45,1.14.61,2.76-1.88,2.15,4.87,3.78,3.78.91,7.64,1.34,11.47,2,.88,1.6,2,3.49,3.51,3.77,4.61.88,9.34,1.16,14,1.65.78.08,1.57,0,2.59.07-.61,2.48,0,4.24,2.38,4.43,3.86.31,7.74.26,11.61.38a7.73,7.73,0,0,1,2.32.26c1.51.57,2.89,1.67,4.43,1.91,5.67.87,11.38,1.58,17.09,2.14a72.33,72.33,0,0,0,7.83-.11l1.8-2.64c-1.21-1.18-2-3.1-3-4.45-2.67-3.6-6.51-13.21-9.83-15.55-2.36-1.66-2.15-1.07-3.88-3.15s-2.57-5.73-4.61-7.51c-.84-.74-1.62,1.67-2.23.78-2.8-4-5.46-8.17-8.36-12.55l-2.78,2.8c-2.83-5.94-6.18-11.18-11-15.43l-2.95,2.64c-.57-.66-1.06-1.17-1.48-1.74-2.41-3.19-4.63-6.54-7.27-9.53a12,12,0,0,0-3.73-3.18c-.16.27-1,1.6-1.2,1.88C117.41,785.29,116.31,780.38,111.41,778.44Z"/>
            </g>
            <g>
              <path class="logo-cls-3" d="M182.69,863h.09l-.13,0Z"/>
              <path class="logo-cls-3" d="M177.29,912c.81,0,1.55-.09,2.36-.12-.72,3.29-2.24,6.39-1.06,9.55l2.39-.33c-.53,3.1-1.54,6-.58,9.16l3.72-.52A13.13,13.13,0,0,0,185,939l2.42-1c-.28,2.24-.46,4.19.52,6.17l2.73-1.51c.82,4.06,1.15,5.73,1.59,7.34.4-.24,1.73-.31,2.05-.5L199,963.41a89.38,89.38,0,0,0,1.9-15l2,.28c0-2.83.06-5.51.1-8.21l2.63.69a14.75,14.75,0,0,0-1.56-9.76l4,1c.38-3.27-1.05-5.89-2.6-8.66,1.28-.08,2.36-.09,3.63-.17-.24-3.56-2.1-6.41-4.43-8.81l2.44-.34c-.48-3.57-2.45-6.32-4.53-9l1.66-.24c.2-2.14-1-4-2.16-5.75-.23-.37-.54-1-.38-1.22.77-1.09,1.35,0-.23-2.9-.88-1.61-2-3.1-3-4.64.28-.82.58-1.82.21-2.43-1.16-1.89-2.57-3.63-3.89-5.43-.22-.29-.49-.56-.8-.92,1.06-.57,1.47-1.36.79-2.24-1.12-1.44-2.37-2.78-3.56-4.17a3.52,3.52,0,0,1-.64-.9,13,13,0,0,0-.74-2.15c-1.5-2.26-3.07-4.47-4.69-6.65a33.38,33.38,0,0,0-2.53-2.7l-1.49.21a17.87,17.87,0,0,1-.59,2.48c-.41,2.07-2.54,6.47-2.31,8.37a5.46,5.46,0,0,1,.13,2.36c-.17,1.25-1.18,2.72-1.15,4,0,.54,1.1,0,1,.54-.52,2.26-1.12,4.5-1.73,6.91l1.87.07a22.05,22.05,0,0,0-1.9,8.74l1.86.19c-.05.41-.08.75-.14,1.08-.35,1.85-.81,3.69-1,5.56a5.88,5.88,0,0,0,.08,2.32l1-.18C177.77,907.74,176.41,909.68,177.29,912Z"/>
            </g>
            <g>
              <path class="logo-cls-3" d="M182.85,866.22l-.06-.11v.08Z"/>
              <path class="logo-cls-3" d="M142,879.34c0,.15,0,.91,0,1.06a5.77,5.77,0,0,0,2.28-.41c1.79-.59,3.49-1.43,5.23-2.16.31-.13.63-.22,1-.35.19.59.35,1.1.58,1.78a22.28,22.28,0,0,0,8.15-3.68c.16.61.26,1,.46,1.81,2.23-1.1,4.3-2.15,6.4-3.13.46-.22.2,1,.73.85,1.25-.24,2.48-1.53,3.66-2a5.39,5.39,0,0,1,2.33-.36c1.92-.17,5.77-3.17,7.72-4a16.65,16.65,0,0,1,2.3-1.09l-.11-1.51a34.63,34.63,0,0,0-3.17-1.91q-3.69-1.69-7.47-3.2a11,11,0,0,0-2.26-.27,3.51,3.51,0,0,1-1-.45c-1.61-.87-3.18-1.82-4.83-2.61-1-.48-1.68.08-2,1.24-.42-.23-.74-.44-1.07-.59-2-.92-4-1.93-6.12-2.67-.67-.24-1.59.26-2.33.7-1.72-.64-3.39-1.39-5.15-1.92-3.14-1-2-.6-2.88.38-.19.2-.87,0-1.28-.12-2-.72-4-1.56-6.08-.91,0,.52.08,1,.12,1.67-3.11-1.47-6.21-2.82-9.8-2.55.06.86.11,1.49.18,2.46-2.84-1.78-6-3-9.54-2.51.18,1.27.4,2.33.59,3.59-3-.93-5.89-1.79-9-.74l1.85,3.73a14.76,14.76,0,0,0-9.87.5l1.22,2.43-8,1.81.7,1.91a90.57,90.57,0,0,0-14.33,5l14.61,1.67c-.13.35.09,1.66-.06,2.1,1.66.09,3.36.07,7.5,0l-.9,3c2.14.55,4,0,6.14-.77-.17.88-.33,1.62-.52,2.58a13.15,13.15,0,0,0,9.24-1.06c.1,1.35.18,2.48.27,3.75,3.32.27,5.92-1.31,8.84-2.48.06.76.11,1.46.17,2.41,3.34.5,6-1.64,9.13-3,.13.79.24,1.53.37,2.33C138.48,882,140.1,880.3,142,879.34Z"/>
            </g>
            <path class="logo-cls-3" d="M187.7,852s-34,52.32-57.38,70.88a82.46,82.46,0,0,0,16.39-6.32c7.71-4.13,47.19-56.33,47.19-56.33Z"/>
            <rect class="logo-cls-3" x="169.44" y="830.47" width="40.76" height="51.63" transform="translate(-595.12 464.98) rotate(-51)"/>
          </g>
          <g>
            <g>
              <path class="logo-cls-3" d="M1000.63,708.9l0,.33c0-.15.06-.31.1-.47Z"/>
              <path class="logo-cls-3" d="M809.62,687.3c.13,3.15.2,6.09.33,9.22-12.85-2.83-24.24-8.89-37.38-4.22l1.29,9.34c-12.23-2.09-22.9-6.13-36.15-2.32l2,14.54c-11.57-4-24.29-1.68-35.81,3.29,1.47,3.53,2.82,6.2,4.18,9.42-8.71-1.1-16.25-1.85-24,2,2.09,3.82,3.95,7.11,5.89,10.67-15.84,3.14-22.34,4.43-28.62,6.1.93,1.57,1.17,6.75,1.91,8l-54.42,18.06a352.62,352.62,0,0,0,58.71,7.57c-.27,1.89-.59,4.11-1.13,7.84l32,.5c-.69,2.61-1.56,5.92-2.71,10.26,13.37,2.21,25.45.63,38.07-6-1.44,5.54-2.68,10.28-4.1,15.72,12.79,1.53,23-4,33.82-10,.32,5,.74,9.13,1.06,14.12,13.84-.92,24.11-8,34.78-17.27l1.31,9.52c13.54-1.77,23.53-9.33,34.36-17.44l.89,6.47c9.28.7,15.66-4,22.58-8.35,1.46-.91,4-2.11,4.82-1.5,4.24,3,.1,5.27,11.34-.86,6.28-3.43,12.1-7.62,18.14-11.46,3.19,1.11,7.12,2.26,9.48.82,7.39-4.5,14.19-10,21.2-15.1,1.17-.85,2.2-1.88,3.62-3.11,2.23,4.14,5.3,5.74,8.73,3.11,5.65-4.34,10.89-9.21,16.33-13.83a13.82,13.82,0,0,1,3.49-2.52c2.76-1.09,6-1.29,8.41-2.87,8.82-5.82,17.6-11.92,26.09-18.23,3.57-2.65,6.6-6.07,10.68-9.84l-.8-5.83c-2.78-.16-6.72-1.71-9.77-2.31-8.1-1.62-25.28-10-32.71-9.08-5.27.65-4.27,1.2-9.21.49s-10.62-4.64-15.59-4.55c-2.08,0-.16,4.28-2.1,3.83-8.81-2.06-17.56-4.41-26.93-6.81-.15,3.16-.22,4.8-.33,7.27-11.23-4.61-22.27-7.61-34.09-7.5-.29,2.77-.5,4.83-.75,7.26-1.6-.2-2.91-.3-4.19-.54-7.23-1.39-14.41-3.21-21.7-4-2.78-.31-6.12-.67-9,.25.13.58.57,3.48.69,4.06C826.28,689.24,818.72,683.89,809.62,687.3Z"/>
            </g>
            <g>
              <path class="logo-cls-3" d="M1000.74,702.59l-.2.2.37-.17Z"/>
              <path class="logo-cls-3" d="M919.19,563.48c-2.06,1.67-3.92,3.26-6,4.92-4.56-10-6.6-21.14-15.89-27.15l-5.63,5.56c-4.66-9.18-7.62-18.68-16.38-25.2l-8.76,8.65c-3.61-10.22-11.27-17.34-20.4-22.58-1.63,2.77-2.83,4.92-4.32,7.45-3.64-6.4-7-11.89-13.43-15.16-1.51,3.32-2.81,6.21-4.22,9.3-10.08-9-14.22-12.78-18.5-16.15-.59,1.41-4,4.17-4.42,5.29L761.78,471a294.94,294.94,0,0,0,24.44,43.22l-5.84,3.19,15.78,21.76-8.25,3.34A48.29,48.29,0,0,0,811.09,565l-12.62,5.15c5.4,9.35,14.27,13.4,23.75,17.65-3.18,2.72-6,4.85-9.19,7.57,7.58,8.84,18,12.69,28.85,14.43l-5.74,5.67c8.22,8.43,18.79,11.79,29.6,14.91l-3.9,3.85c3.66,6,10.52,8.43,16.9,10.9,1.35.52,3.38,1.56,3.4,2.45.1,4.36-3.5,2.7,6.27,7.16,5.46,2.5,11.19,4.29,16.8,6.42.86,2.69,2.06,5.91,4.21,6.77,6.74,2.7,13.84,4.51,20.8,6.64,1.16.35,2.37.53,3.91.86-1.66,3.58-1.19,6.45,2.31,7.43,5.75,1.61,11.66,2.67,17.49,4a11.42,11.42,0,0,1,3.44,1.07c2.12,1.3,3.9,3.4,6.16,4.21q12.53,4.49,25.29,8.28c3.58,1.06,7.39,1.37,11.92,2.15l3.51-3.47c-1.5-2.15-2.17-5.3-3.29-7.65-3-6.25-6-22-10.33-26.49-3.08-3.21-2.93-2.25-4.94-5.92s-2.21-9.46-4.78-12.75c-1.06-1.38-2.95,2.05-3.62.52-3-7-5.87-14-9-21.51l-5.05,3.44c-2.54-9.86-6.08-18.78-12.1-26.66l-5.25,3.14c-.67-1.17-1.26-2.09-1.74-3.08-2.71-5.55-5.09-11.29-8.21-16.6-1.19-2-2.63-4.45-4.72-5.93-.32.37-2,2.12-2.37,2.49C926.26,575.64,926.05,567.87,919.19,563.48Z"/>
            </g>
            <g>
              <path class="logo-cls-3" d="M1001.32,712.42l-.4,0,.25.12Z"/>
              <path class="logo-cls-3" d="M973.77,850.08c.43.24,2.65,1.31,3.08,1.56,1.47-2.11,2-4.88,2.46-7.18,1.16-6.05,1.49-12.25,2.18-18.39.12-1.08.37-2.16.6-3.48l6,1.2c3-9.43,3.39-19,2.49-29.17l5.91,1.55c.41-8.11.7-15.7,1.25-23.27.12-1.67,3,.94,3.59-.72,1.31-4-.42-9.54.23-13.61s.84-3.18,2.67-7.24c2.59-5.72.14-21.53.87-28.42.27-2.59-.15-5.78.54-8.31l-4.47-2.09c-4,2.25-7.49,3.81-10.51,6q-10.74,7.85-21.06,16.27c-1.86,1.52-2.83,4.09-4.39,6a11.65,11.65,0,0,1-2.89,2.17c-5.05,3.21-10.26,6.19-15.14,9.64-3,2.08-2.45,4.94.31,7.77-1.34.82-2.42,1.39-3.39,2.11-5.86,4.34-11.93,8.43-17.38,13.22-1.74,1.54-1.8,5-1.7,7.79-4.58,3.89-9.38,7.49-13.69,11.67-7.71,7.48-4.87,4.71-3.51,8.85.28.84-1.29,2.51-2.38,3.45-5.19,4.46-10.85,9-12.28,15.93l5,2.32c-9.14,6.56-18,13.26-22.9,24l7.31,3.42c-9.6,5.26-18.18,12.39-22.36,23.25,3.91,1.5,7.29,2.56,11.19,4.06-7.51,7.18-14.51,14-16.47,24.58l13.62.63a48.28,48.28,0,0,0-14.3,29l8.89.39c-2.49,8.48-5,16.89-7.58,25.78l6.57,1.06a295.44,295.44,0,0,0-8.57,48.9l28-39.09c.81.9,4.9,2.38,5.93,3.51,2.91-4.61,5.56-9.51,12-21.42,2.36,2.45,4.55,4.73,7.09,7.35,5-5.24,6.29-11.52,7.58-18.77,2.24,1.88,4.1,3.51,6.56,5.57,6.85-8,11.69-17.26,11.67-28.1L943.56,925c6.08-9.07,5.68-19,7-29.23l7.17,3.36c6.73-8.77,4.95-19.9,5.89-30.91,2.48.89,4.77,1.76,7.26,2.65C975.88,864.45,973.48,857.06,973.77,850.08Z"/>
            </g>
            <g>
              <path class="logo-cls-3" d="M1003.26,695.54h-.17l.23.1Z"/>
              <path class="logo-cls-3" d="M1032.88,602.22l-4.65-.68c2.68-6.15,6.86-11.58,5.79-18.2l-4.79-.29c2.24-5.83,5.33-11,4.71-17.63l-7.46-.43c3.14-5.79,3.24-12.13,1.89-18.38-1.91.39-3.37.72-5.11,1.08,1.4-4.25,2.52-8,1.38-12.22l-5.91,1.88c0-8.23,0-11.61-.23-14.92-.88.31-3.49-.08-4.18.16l-3.67-29a179.35,179.35,0,0,0-9.56,28.59l-3.81-1.34c-1.18,5.51-2.29,10.71-3.41,16L989,534.47a29.33,29.33,0,0,0-.75,19.61l-7.45-3.6c-2,6.24-.25,11.89,1.69,17.89-2.52-.33-4.63-.74-7.15-1.07-.91,7,1.61,13.29,5.21,18.88l-4.89-.29C975.21,593,978,599.16,981,605.3l-3.32-.19c-1.24,4.1.47,8.17,2,12,.31.82.66,2.16.27,2.53-1.93,1.82-2.64-.48-.69,5.74,1.1,3.48,2.62,6.79,3.94,10.18-.87,1.49-1.83,3.33-1.34,4.66,1.52,4.13,3.58,8.07,5.45,12.08.31.67.73,1.28,1.2,2.11-2.29.71-3.39,2.09-2.41,4.06,1.61,3.25,3.53,6.35,5.3,9.52a6.61,6.61,0,0,1,.91,2c.28,1.49,0,3.14.61,4.49q3.06,7.47,6.54,14.77a64.44,64.44,0,0,0,3.87,6.25l3,.17c.37-1.54,1.51-3.13,2.12-4.59,1.6-3.89,7.47-11.62,7.75-15.42.2-2.7-.18-2.24.66-4.64s3.37-4.84,3.82-7.34c.18-1-2.13-.49-1.71-1.42,1.89-4.2,3.93-8.33,6.06-12.78l-3.61-.88c3.42-5.16,6-10.38,7.11-16.29l-3.55-1.1c.25-.77.43-1.42.68-2,1.41-3.48,3-6.89,4.16-10.45a11.63,11.63,0,0,0,.76-4.54l-2.1-.06C1030.27,610.36,1033.68,607.11,1032.88,602.22Z"/>
            </g>
            <g>
              <path class="logo-cls-3" d="M1009.22,713.47l.18,0-.26,0Z"/>
              <path class="logo-cls-3" d="M1005.92,818.26c1.72-.21,3.29-.44,5-.65-1,7.12-3.69,13.93-.66,20.45l5-1.11c-.62,6.67-2.28,12.92.28,19.54l7.82-1.72c-1.55,6.87.2,13.44,3.41,19.49,1.85-1,3.26-1.73,5-2.61-.22,4.78-.28,9,2.13,13l5.55-3.65c2.41,8.47,3.39,12,4.58,15.3.81-.58,3.62-.93,4.27-1.39l12.22,28.79a192.08,192.08,0,0,0,1.52-32.25l4.32.27c-.4-6-.77-11.7-1.15-17.44l5.7,1a31.43,31.43,0,0,0-5-20.44l8.72,1.54c.27-7-3.2-12.31-7-17.94,2.69-.39,5-.58,7.68-1-1.11-7.49-5.54-13.23-10.88-17.93l5.12-1.13c-1.61-7.49-6.25-13-11.12-18.46l3.48-.77c.07-4.59-2.87-8.28-5.53-11.85-.56-.75-1.32-2-1-2.52,1.45-2.44,2.86-.28-1-6.12-2.14-3.26-4.67-6.23-7-9.35.46-1.78.91-4,0-5.18-2.77-3.82-6-7.28-9.14-10.86-.52-.6-1.13-1.11-1.86-1.83,2.16-1.4,2.89-3.14,1.31-4.88-2.61-2.88-5.49-5.51-8.24-8.27a7.35,7.35,0,0,1-1.53-1.78c-.71-1.45-1-3.22-1.92-4.45q-5.34-6.81-11.06-13.31a67.14,67.14,0,0,0-5.81-5.31l-3.13.69c.08,1.7-.64,3.67-.84,5.35-.52,4.47-4.32,14.15-3.49,18.15.59,2.84.83,2.26.67,5s-2.06,6-1.79,8.67c.11,1.13,2.34-.1,2.17,1-.72,4.89-1.62,9.74-2.51,14.94l4-.14c-2,6.31-3.16,12.44-2.57,18.86l4,.09c0,.87,0,1.59-.11,2.3-.44,4-1.11,8-1.24,12a12.18,12.18,0,0,0,.55,4.9c.3-.1,1.86-.46,2.17-.56C1006.24,809.12,1003.67,813.47,1005.92,818.26Z"/>
            </g>
            <g>
              <path class="logo-cls-3" d="M1011.89,707.26l-.07,0,.07.11Z"/>
              <path class="logo-cls-3" d="M1049.53,675.1c-.62-.53-1.2-1-1.81-1.53,2.79-1.92,6-3.14,7.35-6.27l-2-1.4c2.52-1.91,5.23-3.32,6.73-6.32-1-.73-2-1.39-3.09-2.18a13.17,13.17,0,0,0,5.72-7.38l-2.48-.9c1.74-1.45,3.21-2.75,3.85-4.88l-3-.78c2.2-3.53,3.1-5,3.89-6.46-.46-.1-1.48-1-1.84-1l6.17-13.42a91.62,91.62,0,0,0-11.74,9.72c-.32-.38-.68-.83-1.29-1.59l-5.72,5.94-1.46-2.31a14.87,14.87,0,0,0-5.56,8.22L1041,639c-2.53,2.13-3.28,5-4,8.13-1-.82-1.79-1.55-2.78-2.37-2.27,2.77-2.87,6.14-2.81,9.5l-2-1.43c-2.1,2.94-2.55,6.32-2.91,9.75l-1.37-1c-1.63,1.43-2,3.64-2.38,5.7-.09.43-.3,1.1-.56,1.16-1.32.27-1-.92-1.83,2.28-.46,1.78-.69,3.61-1,5.42-.77.41-1.67,1-1.82,1.64-.45,2.19-.62,4.43-.89,6.65,0,.37,0,.75,0,1.23-1.17-.31-2,0-2.12,1.09-.18,1.83-.18,3.67-.27,5.51a3.65,3.65,0,0,1-.14,1.1,11.61,11.61,0,0,0-.94,2.08q-.67,4-1.14,8.1a35.22,35.22,0,0,0,0,3.71l1.24.88a17.08,17.08,0,0,1,2.13-1.41c1.73-1.24,6.31-3,7.45-4.55.8-1.11.52-1,1.52-1.81s2.74-1.18,3.6-2.14c.36-.39-.78-.78-.35-1.06,1.93-1.3,3.91-2.53,6-3.88l-1.31-1.34a22.23,22.23,0,0,0,7.4-5.09l-1.23-1.42c.32-.27.57-.5.84-.69,1.53-1.12,3.14-2.15,4.57-3.38a5.66,5.66,0,0,0,1.54-1.75c-.13-.07-.75-.5-.88-.58C1046.24,677.9,1048.57,677.42,1049.53,675.1Z"/>
            </g>
            <g>
              <path class="logo-cls-3" d="M1014,704.82l0,.12.05-.06S1014,704.84,1014,704.82Z"/>
              <path class="logo-cls-3" d="M1052.91,723.3l.69-.8a5.57,5.57,0,0,0-1.95-1.27c-1.71-.8-3.54-1.36-5.31-2-.32-.12-.62-.27-1-.44.26-.57.49-1,.8-1.7a22,22,0,0,0-8.5-2.91l.9-1.65c-2.39-.73-4.62-1.38-6.84-2.11-.49-.16.51-.83.06-1.12-1.09-.69-2.88-.59-4-1.09s-.88-.48-2-1.33c-1.51-1.2-6.4-1.65-8.4-2.38a16.78,16.78,0,0,1-2.43-.78l-1,1.18a32.84,32.84,0,0,0,1,3.57q1.53,3.79,3.27,7.49a12,12,0,0,0,1.47,1.76,3.44,3.44,0,0,1,.43,1c.58,1.74,1.08,3.52,1.74,5.23.4,1,1.29,1.1,2.33.49.15.45.24.82.38,1.16.86,2.07,1.62,4.18,2.64,6.16.33.64,1.35.91,2.2,1.09.81,1.66,1.53,3.35,2.45,4.95,1.65,2.86,1,1.8,2.38,1.71.27,0,.65.57.84,1,1,1.88,1.88,3.91,3.83,4.85L1040,744c1.26,3.22,2.6,6.34,5.42,8.61l1.57-1.92c.84,3.25,2.33,6.34,5.25,8.39.74-1.05,1.31-2,2-3,1.57,2.77,3.07,5.36,6.09,6.73.42-1.39.78-2.59,1.2-4a14.86,14.86,0,0,0,7.57,6.43l.78-2.62,7.12,4.18.8-1.88a89.85,89.85,0,0,0,13.93,6.2l-9.56-11.26c.33-.18,1.08-1.28,1.49-1.51-1.15-1.21-2.41-2.36-5.48-5.18l2.72-1.56c-1.19-1.88-3-2.73-5-3.66l2.15-1.54a13.19,13.19,0,0,0-7.5-5.57l2.39-2.93c-2.25-2.49-5.24-3.11-8.18-4.27l1.53-1.88c-2.11-2.66-5.56-3-8.77-4.06.45-.68.88-1.29,1.33-2C1057.35,723.74,1055,723.91,1052.91,723.3Z"/>
            </g>
            <path class="logo-cls-3" d="M1000.66,711.87s60.92-14.91,90.78-12.45a82.7,82.7,0,0,0-16.35-6.65c-8.49-2.28-73.32,8.81-73.32,8.81Z"/>
            <rect class="logo-cls-3" x="981.54" y="681.37" width="40.96" height="51.88" transform="translate(-86.82 142.72) rotate(-7.81)"/>
          </g>
          <g>
            <g>
              <path class="logo-cls-3" d="M257,258.06l.25-.26-.47.22Z"/>
              <path class="logo-cls-3" d="M363.89,437.81c2.65-2.19,5.14-4.18,7.78-6.35,6,13,8.23,26.85,20.92,35.17l7.25-7.26c6.23,12,9.74,23.88,21.76,32.86l11.29-11.29c4.17,12.63,14.52,22.16,26.41,28.88,2.08-3.6,3.51-6.53,5.41-9.82,4.78,8.27,9.09,15.3,17.48,19.49,1.93-4.32,3.56-8.1,5.37-12.13,13.14,11.67,18.52,16.45,24.11,20.79.75-1.84,5.07-5.45,5.67-6.91l51.44,35.28c-9.21-19.28-19.49-38-32-55.85l7.55-4.18-20.64-28.1,10.67-4.4c-6.87-13-16.19-22.47-30.24-29l16.32-6.79c-7.08-12.08-18.61-17.26-30.94-22.7,4.09-3.54,7.43-6.65,11.54-10.2-9.9-11.4-22.82-15.62-37.85-18.79l7.4-7.4c-10.44-10.57-23.56-14.25-37.72-18.3l5-5c-5.5-8.5-13.79-10.93-22.09-14.08-1.75-.67-4.43-2-4.47-3.19-.17-5.66,4.5-3.56-8.2-9.27-7.1-3.19-14.56-5.47-21.86-8.19-1.14-3.48-2.72-7.65-5.52-8.75-8.77-3.44-18-5.74-27-8.44-1.5-.45-3.07-.67-5.07-1.09,2.12-4.66,1.49-8.38-3.05-9.61-7.48-2.05-15.14-3.38-22.72-5.06a14.93,14.93,0,0,1-4.47-1.37c-2.77-1.67-5.09-4.37-8-5.4-10.85-3.82-21.91-7.41-33-10.63-4.65-1.35-9.61-1.73-15.56-2.78l-4.52,4.52c1.68,2.52,2.94,7,4.41,10,3.93,8.09,8,28.48,13.65,34.32,4,4.14,3.85,2.92,6.48,7.66s3,12.26,6.31,16.51c1.4,1.78,3.82-2.68,4.7-.7,4,9,7.73,18.12,11.81,27.82l6.52-4.5c3.38,12.77,8.05,24.31,15.92,34.47l6.78-4.11c.88,1.51,1.66,2.71,2.28,4,3.55,7.18,6.7,14.6,10.78,21.46,1.56,2.61,3.45,5.75,6.17,7.67.42-.49,2.64-2.78,3.06-3.27C354.62,422.09,355,432.17,363.89,437.81Z"/>
            </g>
            <g>
              <path class="logo-cls-3" d="M251.46,262.12l.3,0-.39-.21A.91.91,0,0,1,251.46,262.12Z"/>
              <path class="logo-cls-3" d="M184.53,424.28c2.8.68,5.4,1.25,8.18,1.92-5.71,10.57-14,19.64-13.07,31.63l8.52,1.23c-4.89,10.08-11.19,18.88-11.07,30.77l13.25,1.9c-6.48,9.86-7.61,21.17-6.15,32.53,3.47-.41,6.13-.78,9.3-1.16-3.15,7.37-5.72,13.87-4.31,21.61L200,542.25c-1.22,14.69-1.73,20.73-1.84,26.66,1.61-.41,6.21.68,7.5.35l2.17,52.28a322.51,322.51,0,0,0,21.39-49.6l6.6,3c2.92-9.65,5.69-18.78,8.48-28l8.33,5c5.29-11.17,6.94-22.17,4.29-34.91l12.76,7.54c4.56-10.83,2.23-21.17-.32-32.18,4.44,1,8.15,2,12.6,3,2.68-12.38-.87-24-6.46-34.49l8.68,1.24c1.9-12.67-2.13-24-6.54-35.45l5.9.84c2.83-7.14.39-14.66-1.66-21.81-.44-1.51-.87-3.95-.11-4.56,3.71-3,4.64,1.26,2.08-10.14-1.42-6.38-3.64-12.52-5.49-18.78,1.77-2.52,3.77-5.67,3.1-8.11-2.1-7.61-5.18-15-7.92-22.39-.46-1.24-1.1-2.4-1.83-3.95,4.2-.92,6.38-3.21,4.93-6.88-2.39-6.05-5.35-11.87-8-17.81a12.5,12.5,0,0,1-1.33-3.69c-.26-2.69.38-5.6-.4-8.1q-4.33-13.8-9.46-27.36c-1.43-3.8-3.66-7.31-6-11.74l-5.31-.77c-.88,2.71-3.17,5.37-4.47,7.88-3.45,6.71-15.1,19.63-16.17,26.38-.75,4.78,0,4-1.88,8.18s-6.74,8.13-7.91,12.52c-.49,1.83,3.72,1.21,2.83,2.8-4,7.21-8.28,14.29-12.74,21.91l6.3,2.12c-6.87,8.69-12.28,17.62-15.14,28l6.17,2.48c-.57,1.35-1,2.48-1.52,3.54-3,6-6.44,11.83-9,18-1,2.35-2.13,5.2-2,8,.54,0,3.19.38,3.73.42C190.41,410.15,183.82,415.44,184.53,424.28Z"/>
            </g>
            <g>
              <path class="logo-cls-3" d="M259.6,255.14l.24.38-.06-.3Z"/>
              <path class="logo-cls-3" d="M397,188.5c-.07-.54-.6-3.16-.67-3.69-2.79.1-5.55,1.45-7.83,2.58-6,3-11.6,6.77-17.38,10.21-1,.61-2.11,1.1-3.42,1.76l-2.9-6c-10.17,3.57-18.72,9.58-26.91,17-.87-2.08-1.44-3.47-2.55-6.14-7.29,5-14.06,9.71-21,14.22-1.52,1-1.19-3.25-3-2.64-4.3,1.47-8,6.64-11.95,8.75s-3.31,1.36-8,2.44c-6.66,1.53-18.75,14-25.2,17.94-2.42,1.47-4.92,3.93-7.56,5l1.13,5.25c4.58,2,8.23,4,12.12,5.15q13.86,4.15,28,7.56c2.54.61,5.4-.24,8.11-.16a12.43,12.43,0,0,1,3.77,1.08c6.1,2.27,12.11,4.82,18.31,6.79,3.76,1.2,5.9-1.13,6.53-5.38,1.6.61,2.8,1.17,4.06,1.54,7.61,2.23,15.15,4.81,22.89,6.37,2.48.5,5.49-1.71,7.87-3.65,6.38,1.42,12.66,3.21,19.12,4.2,11.55,1.76,7.28,1.13,10-2.78.55-.8,3-.54,4.56-.21,7.28,1.57,14.94,3.48,21.88.17-.4-1.83-.75-3.49-1.25-5.83,11.69,3.62,23.31,6.86,35.82,4.09-.64-3-1.12-5.2-1.84-8.58,10.87,4.87,22.69,7.61,34.85,4.09-1.27-4.38-2.57-8-3.84-12.37,11.16,1.79,21.64,3.4,32.14-1.89l-8.41-12.21c12.9,1.77,23.76-.63,34.54-6.68l-5.51-8,27.33-10.38c-1.62-3-2.58-4.84-3.41-6.38a322.28,322.28,0,0,0,48-24.74l-52.31,1.42c.25-1.31-1.16-5.82-.86-7.46-5.91.52-11.9,1.44-26.47,3.67l1.71-11c-7.82-.88-14.13,2.12-21.26,5.78.16-3.19.35-5.87.52-9.36-11.43-.68-22.65,1.22-32,8.37-1-4.74-1.86-8.67-2.81-13.09-11.86.7-20.21,7.58-29.93,13.15-.57-2.64-1.1-5.11-1.81-8.42-12-.07-20.51,8.8-30.66,15.22-.86-2.73-1.61-5.29-2.48-8C408.1,177.22,403.27,184.16,397,188.5Z"/>
            </g>
            <g>
              <path class="logo-cls-3" d="M243.69,264.57l.11.15c0-.09-.05-.17-.07-.26A.76.76,0,0,1,243.69,264.57Z"/>
              <path class="logo-cls-3" d="M143.34,300.26c.83,1.54,1.64,2.95,2.46,4.48-7.09,1.72-14.54,1.67-19.58,6.95,1.14,1.7,2,3,2.91,4.34-6.54,1.89-13.07,2.63-18.38,7.51,1.53,2.29,2.89,4.32,4.53,6.75-7.08,1.09-12.65,5.18-17.18,10.45,1.6,1.4,2.84,2.45,4.3,3.72-4.6,1.57-8.57,3.06-11.49,6.84l5.51,3.89c-7.13,5.42-10.06,7.64-12.78,10,.85.56,2.22,3.08,2.89,3.53l-22.7,22.22A194.29,194.29,0,0,0,94.9,380.43c.32,1,.7,2.2,1.35,4.19l16.06-7.55c.3,1.47.67,3.33,1.15,5.77A31.94,31.94,0,0,0,131,370.59c.62,3.1,1.16,5.77,1.78,8.82,6.73-2.34,10.46-7.6,14.39-13.22,1.37,2.39,2.4,4.49,3.77,6.9,6.68-3.83,10.47-10.14,12.94-16.94l3,4.43c6.49-4.29,10-10.73,13.34-17.36.81,1.2,1.38,2.07,2,3,4.38-1.63,6.78-5.79,9.17-9.62.5-.81,1.43-2,2-1.9,2.84.47,1.32,2.6,5.42-3.18,2.3-3.24,4.17-6.73,6.24-10.11,1.86-.22,4.09-.6,4.92-1.9,2.59-4,4.64-8.41,6.88-12.67.38-.71.64-1.47,1-2.43,2.12,1.52,4,1.57,5.11-.57,1.76-3.54,3.18-7.24,4.77-10.86a7.29,7.29,0,0,1,1.12-2.1c1.11-1.22,2.69-2.11,3.49-3.47q4.47-7.57,8.5-15.39a69,69,0,0,0,2.87-7.46l-1.81-2.71c-1.58.7-3.71.75-5.37,1.19-4.43,1.16-15,1.16-18.47,3.42-2.47,1.6-1.82,1.62-4.45,2.47s-6.41.27-8.87,1.52c-1,.52,1,2.17-.11,2.42C199.72,274,194.8,275,189.55,276c.69,1.61,1.06,2.45,1.6,3.71-6.71.43-12.94,1.62-18.79,4.55.53,1.45.93,2.53,1.39,3.8-.84.29-1.52.55-2.22.74-3.93,1.07-7.95,1.91-11.78,3.27a12.57,12.57,0,0,0-4.44,2.33c.2.26,1.13,1.6,1.33,1.85C152.11,297.18,147,296.35,143.34,300.26Z"/>
            </g>
            <g>
              <path class="logo-cls-3" d="M255.31,247.61l-.15-.13.14.25S255.31,247.65,255.31,247.61Z"/>
              <path class="logo-cls-3" d="M348.3,181.56c-1.3-1.35-2.54-2.57-3.84-3.9,6.81-3.84,14.5-6,18.15-12.88l-4.26-3.62c6.18-3.86,12.69-6.52,16.75-13.1l-6.64-5.64c7-3.18,11.53-9,14.65-15.77-2.05-1-3.64-1.69-5.51-2.59,4.28-3,7.94-5.64,9.85-10.39l-6.82-2.4c5.76-7.66,8.14-10.81,10.25-14-1-.32-3.18-2.52-4-2.78l16.91-29.53a209.73,209.73,0,0,0-28.94,19.89l-2.61-3.91L357.87,93.36,355,87.75a34.19,34.19,0,0,0-14.46,17.73l-4.41-8.58c-6.26,4.38-8.56,10.88-11,17.82-2.11-2.06-3.79-3.93-5.9-6-5.76,5.88-7.83,13.5-8.39,21.22l-4.35-3.69c-5.43,6.31-7.15,14-8.68,21.77l-3-2.51c-4,3-5.29,7.94-6.64,12.59-.28,1-.89,2.47-1.52,2.54-3.06.34-2.11-2.3-4.66,4.86-1.42,4-2.33,8.15-3.48,12.24-1.84.77-4,1.81-4.51,3.38-1.48,4.92-2.33,10-3.4,15.07-.17.84-.22,1.7-.36,2.81-2.63-.95-4.62-.44-5.09,2.08-.78,4.15-1.17,8.38-1.75,12.58a8.2,8.2,0,0,1-.54,2.49c-.79,1.57-2.15,2.95-2.59,4.6-1.59,6.06-3,12.19-4.27,18.33a76.71,76.71,0,0,0-.78,8.53l2.66,2.26c1.42-1.19,3.6-1.86,5.19-2.79,4.22-2.49,15.1-5.57,18-8.91,2.07-2.38,1.4-2.21,3.87-3.85s6.52-2.15,8.69-4.16c.9-.83-1.63-1.95-.6-2.52,4.72-2.58,9.51-5,14.61-7.64L305,216.65c6.79-2.4,12.86-5.45,18-10.17L320.52,203c.79-.54,1.4-1,2.06-1.42,3.75-2.24,7.65-4.28,11.2-6.8a13.28,13.28,0,0,0,3.89-3.7c-.28-.2-1.62-1.31-1.91-1.52C340.17,187.29,345.63,186.66,348.3,181.56Z"/>
            </g>
            <g>
              <path class="logo-cls-3" d="M248.18,249.38v.09a.93.93,0,0,1,0-.13Z"/>
              <path class="logo-cls-3" d="M195.55,237.9c-.05.89-.08,1.7-.14,2.58-3.5-1.16-6.69-3.16-10.26-2.24,0,1,.06,1.81.09,2.64-3.31-.94-6.32-2.36-9.9-1.69,0,1.39.09,2.63.14,4.11a14.37,14.37,0,0,0-10.17-.1c.32,1,.57,1.81.86,2.75-2.4-.56-4.5-1-6.77-.14l1.33,3.15c-4.51.42-6.36.59-8.16.88.22.46.13,1.92.31,2.28l-15.69,3.48a99,99,0,0,0,16.14,3.79c-.13.52-.28,1.13-.53,2.16l8.91,1.05c-.27.71-.6,1.6-1.05,2.78a16.07,16.07,0,0,0,10.79-.59l-1.59,4.27c3.52.79,6.52-.47,9.71-1.83,0,1.39-.17,2.57-.22,4,3.89.14,7.2-1.55,10.08-3.81,0,1.06,0,1.75.09,2.69,3.93-.11,7.15-1.94,10.36-3.89,0,.73.05,1.25.06,1.83,2.32.47,4.46-.68,6.51-1.68.43-.22,1.15-.48,1.37-.28,1.09,1-.13,1.47,3.18.08,1.85-.78,3.58-1.78,5.38-2.67.85.39,1.91.83,2.62.49,2.18-1,4.23-2.37,6.34-3.6.34-.2.66-.46,1.09-.76.51,1.21,1.32,1.75,2.35,1.11,1.7-1.05,3.3-2.25,4.94-3.39a4.07,4.07,0,0,1,1.05-.6,11.7,11.7,0,0,0,2.42-.56q3.94-2.05,7.77-4.33a37,37,0,0,0,3.22-2.44l-.06-1.65a19.41,19.41,0,0,1-2.62-.92c-2.21-.69-6.74-3.51-8.84-3.47a6,6,0,0,1-2.58-.13c-1.33-.33-2.82-1.59-4.21-1.71-.58-.05-.16,1.19-.69,1-2.4-.83-4.77-1.73-7.31-2.67l-.3,2a24.08,24.08,0,0,0-9.29-3.06l-.42,2c-.44-.1-.8-.16-1.15-.26-2-.6-3.92-1.31-5.93-1.75a6.3,6.3,0,0,0-2.53-.18c0,.16.06,1,.08,1.15C200.14,238.92,198.19,237.21,195.55,237.9Z"/>
            </g>
            <g>
              <path class="logo-cls-3" d="M244.7,249.18l.13,0h-.1Z"/>
              <path class="logo-cls-3" d="M235.1,203.28,234,203.2a6.3,6.3,0,0,0,.19,2.53c.43,2,1.15,4,1.74,5.94.1.35.17.71.27,1.14l-2,.43a24.28,24.28,0,0,0,3.07,9.28l-2,.3c.93,2.54,1.84,4.91,2.66,7.31.19.53-1.05.11-1,.69.11,1.39,1.38,2.88,1.71,4.22a5.93,5.93,0,0,1,.13,2.57c0,2.1,2.78,6.63,3.46,8.84a19.59,19.59,0,0,1,.93,2.63l1.64,0a33.4,33.4,0,0,0,2.44-3.22q2.28-3.82,4.34-7.76a13.26,13.26,0,0,0,.56-2.43,3.65,3.65,0,0,1,.6-1c1.13-1.65,2.34-3.25,3.39-5,.63-1,.1-1.84-1.12-2.34.3-.43.56-.75.77-1.1,1.23-2.1,2.56-4.15,3.6-6.34.33-.7-.1-1.76-.5-2.62.9-1.79,1.9-3.53,2.68-5.38,1.38-3.31.88-2.08-.09-3.18-.19-.22.07-.94.28-1.37,1-2.05,2.15-4.19,1.68-6.5l-1.83-.07c2-3.21,3.78-6.43,3.9-10.36l-2.7-.09c2.26-2.88,4-6.19,3.82-10.08-1.4,0-2.58.17-4,.22,1.37-3.19,2.63-6.19,1.83-9.71l-4.26,1.59a16.17,16.17,0,0,0,.59-10.78l-2.79,1c-.34-2.94-.69-5.84-1.05-8.92l-2.16.54A97.78,97.78,0,0,0,251,138.14l-3.48,15.69c-.37-.17-1.82-.09-2.29-.3-.28,1.8-.46,3.65-.88,8.15l-3.14-1.32c-.85,2.26-.42,4.36.14,6.76-.94-.28-1.73-.54-2.75-.85a14.29,14.29,0,0,0,.1,10.16l-4.11-.14c-.68,3.59.75,6.59,1.68,9.9l-2.64-.09c-.92,3.58,1.09,6.76,2.25,10.27-.88,0-1.7.08-2.58.14C232.57,199.14,234.27,201.09,235.1,203.28Z"/>
            </g>
            <path class="logo-cls-3" d="M259.56,256.08s-53-43-70.49-70.49a89.87,89.87,0,0,0,5,18.55c3.6,8.85,55.85,57.74,55.85,57.74Z"/>
            <rect class="logo-cls-3" x="226.48" y="235.62" width="56.45" height="44.56" transform="translate(-107.76 255.64) rotate(-45)"/>
          </g>
          <g>
            <g>
              <path class="logo-cls-3" d="M487.43,98.86l.3-.11h-.46A.91.91,0,0,1,487.43,98.86Z"/>
              <path class="logo-cls-3" d="M505.72,280.91c2.9-.75,5.62-1.41,8.51-2.16-.05,12.53-3.41,24.34,3.58,35.63l8.44-3.07c.51,11.8-1.11,22.53,5.1,34.1l13.12-4.78c-1.36,11.56,3.32,22.94,10.26,32.66,3-2.08,5.2-3.88,7.93-5.78.73,8.32,1.54,15.49,6.65,21.91,3.13-2.71,5.82-5.1,8.74-7.63,6.11,14.11,8.61,19.9,11.43,25.41,1.27-1.18,6-2.45,7.06-3.39l27.73,47a335.37,335.37,0,0,0-4.75-56.13l7.53-.53c-2.07-10.32-4-20.07-6-29.91l10.09.46c-.63-12.88-4.53-23.81-13.24-34.22l15.45.66c-1.14-12.2-8.37-20.57-16.14-29.44,4.56-1.3,8.35-2.53,12.93-3.83-3.64-12.7-12.32-20.82-23.06-28.89l8.6-3.13c-4.37-12.24-13.42-20-23.14-28.46l5.85-2.13c-1.22-8.78-6.9-13.77-12.31-19.33-1.14-1.18-2.76-3.26-2.36-4.19,2-4.55,4.88-1.15-3.08-10.37-4.45-5.16-9.52-9.73-14.31-14.58.39-3.19.68-7.07-1.14-9-5.67-6-12.13-11.21-18.31-16.7-1-.91-2.19-1.66-3.62-2.74,3.4-2.91,4.28-6.09,1.14-8.75-5.18-4.38-10.76-8.28-16.15-12.41a13.12,13.12,0,0,1-3-2.74c-1.57-2.34-2.41-5.34-4.36-7.25-7.19-7-14.63-14-22.2-20.61-3.19-2.79-7-4.93-11.31-8l-5.26,1.91c.41,2.62-.24,6.61-.19,9.56.12,7.86-4.21,25.53-1.87,32.26,1.66,4.77,2,3.73,2.3,8.47s-2.18,10.81-1.1,15.42c.45,1.92,4-.72,4,1.18-.15,8.61-.58,17.23-.93,26.43l6.84-1.15c-2.05,11.36-2.62,22.25-.13,33.21l6.9-.75c.13,1.52.31,2.76.33,4,.16,7-.09,14.05.62,21,.26,2.65.6,5.83,2.05,8.36.51-.23,3.12-1.23,3.63-1.46C504.17,265,500.71,273.13,505.72,280.91Z"/>
            </g>
            <g>
              <path class="logo-cls-3" d="M481.55,100l.22.14c-.08-.1-.15-.19-.23-.31A1,1,0,0,0,481.55,100Z"/>
              <path class="logo-cls-3" d="M368.5,203.85c2,1.58,3.83,3,5.78,4.56-8.44,6.26-18.35,10.39-22.07,20.24l6.31,4.12c-7.61,6.19-15.86,10.84-20.16,20.3l9.81,6.41c-8.79,5.42-13.87,14-16.91,23.53,2.9.95,5.15,1.64,7.8,2.52-5.22,4.67-9.66,8.88-11.41,15.53,3.4.75,6.34,1.37,9.5,2.06-6.4,11.2-9,15.8-11.31,20.46,1.43.27,4.67,2.84,5.81,3.05L314,368.89a281.08,281.08,0,0,0,35.3-31.42l4.14,4.79,17.08-19.05,4.76,7a46.05,46.05,0,0,0,16.32-26.1l7.33,10.7c7.62-6.9,9.6-16,11.65-25.64,3.16,2.41,5.72,4.61,8.89,7,6.7-8.83,8.18-19.34,7.63-29.74l6.42,4.2c6.2-9.35,7.2-19.85,7.93-30.54l4.37,2.86c4.88-4.62,5.73-11.48,6.74-17.92.21-1.35.78-3.45,1.6-3.65,4-1,3.22,2.71,5.41-7.27,1.22-5.58,1.73-11.27,2.59-16.93,2.33-1.33,5.08-3.09,5.45-5.27,1.16-6.82,1.42-13.78,2-20.69.09-1.15,0-2.31,0-3.81,3.66.82,6.24-.19,6.44-3.63.35-5.68.15-11.39.22-17.09a10.76,10.76,0,0,1,.31-3.42c.78-2.23,2.37-4.3,2.67-6.57q1.67-12.56,2.63-25.2c.27-3.54-.21-7.15-.39-11.51l-3.94-2.57c-1.7,1.82-4.5,3.08-6.45,4.59-5.22,4-19.24,10-22.58,14.93-2.37,3.52-1.5,3.19-4.52,5.79s-8.35,4-10.9,7c-1.07,1.27,2.5,2.33,1.21,3.26-5.85,4.24-11.85,8.28-18.2,12.67l4.21,4c-8.66,4.34-16.25,9.43-22.37,16.61l4,4.26c-1,.85-1.7,1.59-2.52,2.24-4.62,3.63-9.48,7-13.8,11-1.64,1.51-3.61,3.34-4.57,5.58.41.23,2.39,1.48,2.8,1.71C378.39,194.82,371.21,196.58,368.5,203.85Z"/>
            </g>
            <g>
              <path class="logo-cls-3" d="M490.58,97.51c0,.14,0,.26.05.38l.05-.26Z"/>
              <path class="logo-cls-3" d="M624.18,95.48c.14-.45.7-2.72.84-3.17-2.26-1-4.94-.9-7.17-.85-5.86.14-11.7,1.08-17.55,1.67-1,.1-2.08.09-3.37.13,0-1.94,0-3.6-.08-5.82-9.39-.93-18.39.67-27.64,3.55.09-2,.14-3.29.25-5.81-7.62,1.25-14.74,2.5-21.9,3.51-1.57.23.26-3-1.39-3.19-3.95-.43-8.79,2.3-12.71,2.51s-3.13-.14-7.27-1c-5.85-1.25-20.06,4.2-26.62,4.91-2.46.26-5.35,1.3-7.84,1.16l-1.05,4.58c2.9,3.28,5.06,6.21,7.71,8.57q9.47,8.43,19.37,16.33c1.79,1.42,4.37,1.81,6.49,2.87a11,11,0,0,1,2.59,2.25c4,4.06,7.82,8.31,12,12.16,2.54,2.34,5.09,1.28,7.17-1.85,1,1.07,1.78,2,2.65,2.73,5.21,4.57,10.23,9.4,15.79,13.51,1.78,1.31,5,.67,7.59,0,4.54,3.48,8.85,7.22,13.61,10.39,8.5,5.67,5.35,3.59,8.93,1.49.73-.43,2.59.69,3.69,1.52,5.19,3.93,10.56,8.28,17.28,8.22.37-1.59.7-3,1.17-5.08,7.94,7.19,15.95,14.06,26.89,16.49l1.71-7.48c6.83,7.87,15.18,14.42,26.13,16.12.61-3.94.92-7.29,1.53-11.22,8.19,5.54,15.9,10.69,26.18,10.38-.74-4.43-1.39-8.29-2.15-12.79a46.07,46.07,0,0,0,29.86,7.48c-.61-3.54-1.07-6.23-1.43-8.36L751,183.26c-.16-3-.26-4.8-.34-6.32a282.14,282.14,0,0,0,47.23-1.86l-42-18.22c.68-.94,1.23-5,2.08-6.23-4.88-1.78-10-3.26-22.35-6.88,1.8-2.7,3.49-5.19,5.42-8.08-5.88-3.58-12-3.53-19-3.28,1.31-2.47,2.45-4.52,3.87-7.22-8.81-4.77-18.4-7.41-28.49-5.22.94-4.12,1.73-7.55,2.61-11.42-9.66-3.83-18.83-1.46-28.6-.64.53-2.3,1-4.46,1.68-7.34-9.51-4.51-19.51-.61-29.93.73.32-2.48.68-4.79,1-7.29C637.14,90.63,630.74,94.35,624.18,95.48Z"/>
            </g>
            <g>
              <path class="logo-cls-3" d="M474.48,99.1l0,.15c0-.07,0-.14.05-.23Z"/>
              <path class="logo-cls-3" d="M381.71,90.29c.09,1.53.2,2.94.29,4.46-6.25-1.26-12.15-4-18.1-1.73.28,1.77.48,3.1.7,4.52-5.88-.92-11.33-2.75-17.35-.85.38,2.38.7,4.49,1.1,7-6-1.76-11.94-.57-17.48,1.93.75,1.7,1.35,3,2,4.55-4.23-.46-7.93-.75-11.64,1.17,1,1.83,1.95,3.41,2.93,5.12-7.65,1.66-10.8,2.34-13.83,3.21.46.75.62,3.26,1,3.86l-26.22,9.23a171.7,171.7,0,0,0,28.52,3.15c-.12.92-.25,2-.48,3.82l15.53,0c-.31,1.27-.71,2.88-1.22,5a27.93,27.93,0,0,0,18.4-3.25L344,149.12c6.21.64,11.1-2.15,16.3-5.16.2,2.41.24,4.46.44,6.87,6.71-.57,12.05-4.17,16.52-8.64l.71,4.6c6.73-1,11.88-4.82,17-8.83.19,1.25.33,2.15.48,3.13,4.07.32,7.51-2.08,10.83-4.24.69-.45,1.87-1,2.3-.76,2.07,1.42.08,2.55,5.47-.52,3-1.71,5.79-3.8,8.69-5.71,1.55.51,3.46,1,4.59.32,3.55-2.25,6.8-5,10.15-7.5.56-.43,1.05-.94,1.72-1.55,1.12,2,2.63,2.74,4.26,1.44,2.71-2.16,5.2-4.56,7.8-6.85a6.46,6.46,0,0,1,1.67-1.25c1.32-.55,2.91-.68,4.05-1.46q6.33-4.35,12.43-9.06a63.23,63.23,0,0,0,5-4.85L474,96.28c-1.51,0-3.22-.78-4.7-1-3.94-.71-12.31-4.62-15.91-4.11-2.54.36-2,.61-4.44.31s-5.18-2.16-7.6-2.07c-1,0,0,2.08-1,1.87-4.29-.92-8.55-2-13.12-3.07,0,1.54-.06,2.34-.09,3.53a41.85,41.85,0,0,0-16.59-3.33c-.11,1.34-.2,2.34-.3,3.52-.78-.08-1.41-.12-2-.23-3.52-.61-7-1.43-10.56-1.76a10.79,10.79,0,0,0-4.37.2c.06.28.3,1.68.36,2C389.8,91.08,386.09,88.56,381.71,90.29Z"/>
            </g>
            <g>
              <path class="logo-cls-3" d="M490,90l-.07-.16a2.29,2.29,0,0,0,0,.25A.41.41,0,0,1,490,90Z"/>
              <path class="logo-cls-3" d="M588.12,72c-.54-1.55-1.07-3-1.6-4.51,6.81-.52,13.69.63,19.15-3.5l-2-4.45c6.33-.77,12.48-.47,18.13-4.19-1.08-2.34-2-4.42-3.18-6.92,6.71.06,12.47-2.89,17.45-7.09-1.27-1.53-2.26-2.69-3.42-4.09,4.49-.76,8.39-1.54,11.66-4.6l-4.52-4.42c7.4-4,10.45-5.57,13.31-7.34-.69-.64-1.59-3.18-2.14-3.69L675.25,0a182.18,182.18,0,0,0-30.31,5.07c-.15-1-.33-2.14-.62-4.07l-16,4.57c-.05-1.4-.12-3.18-.2-5.51a29.9,29.9,0,0,0-18,8.71c-.11-3-.21-5.51-.32-8.43C603.2,1.5,599,5.8,594.49,10.42,593.59,8,593,5.9,592,3.47c-6.75,2.54-11.2,7.81-14.5,13.73l-2.08-4.54c-6.65,3-10.84,8.43-14.94,14.06l-1.41-3.09c-4.29.86-7.13,4.34-9.92,7.53-.59.67-1.62,1.63-2.14,1.45-2.56-.86-.83-2.6-5.49,2.13-2.61,2.65-4.87,5.6-7.29,8.42-1.75-.07-3.87-.06-4.83,1-3,3.34-5.56,7.08-8.27,10.69-.45.6-.8,1.26-1.33,2.08-1.73-1.72-3.5-2.05-4.8-.23-2.16,3-4,6.22-6,9.33a7.08,7.08,0,0,1-1.35,1.78c-1.21,1-2.8,1.54-3.75,2.68q-5.26,6.34-10.17,13A68.68,68.68,0,0,0,490,90l1.27,2.77c1.57-.41,3.55-.14,5.15-.29,4.27-.42,14,1.17,17.59-.4,2.52-1.12,1.93-1.23,4.49-1.62s6,.71,8.43-.08c1-.33-.57-2.15.46-2.22,4.69-.3,9.39-.45,14.41-.66-.41-1.59-.62-2.42-.93-3.66,6.27.6,12.21.43,18.06-1.4-.27-1.42-.48-2.48-.72-3.72.83-.14,1.49-.29,2.16-.36,3.81-.4,7.65-.57,11.4-1.26a11.73,11.73,0,0,0,4.45-1.49c-.15-.27-.8-1.64-.95-1.91C579.55,73.5,584.11,75,588.12,72Z"/>
            </g>
            <g>
              <path class="logo-cls-3" d="M483.65,88.71l0,.08.08-.09Z"/>
              <path class="logo-cls-3" d="M446.17,60.15c-.37.68-.7,1.32-1.07,2-2.35-2.21-4.13-5-7.31-5.57l-.9,2.12c-2.28-2-4.14-4.2-7.23-5-.47,1.12-.9,2.11-1.41,3.31a12.53,12.53,0,0,0-8-3.84c-.13.93-.22,1.64-.34,2.49-1.69-1.33-3.2-2.44-5.31-2.61,0,1.07-.07,2-.11,3-3.73-1.33-5.26-1.88-6.8-2.32,0,.45-.6,1.57-.6,1.92l-13.73-3a85.54,85.54,0,0,0,11.41,9l-1.23,1.52,6.68,4.13L408.34,69a14.16,14.16,0,0,0,8.77,3.52l-2.84,2.79c2.5,1.93,5.35,2,8.38,2.14-.56,1.09-1.08,2-1.64,3.06a13.42,13.42,0,0,0,9.4.71c-.37.85-.6,1.4-.92,2.16,3.15,1.37,6.38,1.11,9.65.75l-.63,1.48c1.66,1.22,3.79,1.11,5.78,1.07.43,0,1.09,0,1.19.28.52,1.17-.64,1.12,2.5,1.24,1.75.07,3.5-.08,5.25-.13.53.64,1.21,1.37,1.89,1.37,2.12,0,4.24-.32,6.36-.51.35,0,.7-.13,1.15-.2-.05,1.15.4,1.87,1.45,1.75,1.73-.21,3.45-.57,5.18-.86a3.12,3.12,0,0,1,1.05-.09,11.63,11.63,0,0,0,2.12.45q3.88-.18,7.76-.57a32,32,0,0,0,3.46-.74l.57-1.32a16.52,16.52,0,0,1-1.74-1.71c-1.5-1.36-4.05-5.27-5.73-6a5.24,5.24,0,0,1-2-1c-.93-.76-1.64-2.31-2.7-2.91-.44-.26-.57.88-.92.54-1.6-1.54-3.14-3.14-4.82-4.82-.42.65-.64,1-1,1.49a21.18,21.18,0,0,0-6.23-5.86L458,68.48c-.31-.25-.57-.43-.81-.64-1.35-1.2-2.63-2.49-4.06-3.58a5.43,5.43,0,0,0-1.94-1.08c0,.13-.32.8-.36.94C449.43,62.65,448.51,60.58,446.17,60.15Z"/>
            </g>
            <g>
              <path class="logo-cls-3" d="M481,87.27h.12l-.07,0Z"/>
              <path class="logo-cls-3" d="M490.33,47.32l-.88-.48a5.42,5.42,0,0,0-.79,2.07c-.4,1.76-.56,3.57-.81,5.35-.05.32-.13.63-.21,1l-1.75-.4a21.19,21.19,0,0,0-1,8.49l-1.71-.51c-.2,2.37-.36,4.58-.59,6.79,0,.48-.88-.3-1,.17-.43,1.15,0,2.79-.2,4a5.41,5.41,0,0,1-.85,2.09c-.81,1.64-.25,6.28-.53,8.29a15,15,0,0,1-.24,2.42l1.29.66a34.12,34.12,0,0,0,3.13-1.66c2.14-1.46,4.25-3,6.3-4.55a11,11,0,0,0,1.34-1.72,3.29,3.29,0,0,1,.87-.6c1.51-.89,3.05-1.71,4.51-2.67.89-.58.77-1.43,0-2.27.39-.24.72-.39,1-.59,1.75-1.21,3.56-2.35,5.2-3.7.52-.43.57-1.43.57-2.26,1.38-1.09,2.81-2.09,4.11-3.27,2.33-2.11,1.47-1.33,1.11-2.56-.07-.24.4-.72.73-1,1.56-1.25,3.26-2.53,3.74-4.53l-1.43-.73c2.74-1.83,5.38-3.7,6.92-6.78L517,47.31c2.86-1.44,5.43-3.44,6.75-6.58-1.12-.47-2.1-.82-3.23-1.29,2.27-2,4.38-3.94,5.05-7l-4-.31a14.16,14.16,0,0,0,4.45-8.34l-2.59-.2,2.46-7.46L524,15.74a84.8,84.8,0,0,0,3-14.2l-8.56,11.15c-.23-.27-1.41-.74-1.7-1.08-.89,1.32-1.71,2.72-3.71,6.14l-2-2.22c-1.5,1.49-1.94,3.31-2.39,5.42l-1.86-1.7a12.56,12.56,0,0,0-3.68,8.1l-3.21-1.63c-1.86,2.59-1.84,5.5-2.32,8.47-.65-.33-1.26-.63-2.06-1-2.06,2.5-1.64,5.77-2,9l-2.1-.84C489.85,43.11,490.48,45.29,490.33,47.32Z"/>
            </g>
            <path class="logo-cls-3" d="M490.19,98.23s-26.11-53.68-29.82-82a78.53,78.53,0,0,0-2.9,16.55c-.42,8.36,22.93,66.45,22.93,66.45Z"/>
            <rect class="logo-cls-3" x="460.98" y="78.39" width="49.38" height="38.99" transform="matrix(0.94, -0.34, 0.34, 0.94, -4.19, 171.98)"/>
          </g>
          <g>
            <g>
              <path class="logo-cls-3" d="M362.06,981.13l-.26-.17.27.37A1.41,1.41,0,0,0,362.06,981.13Z"/>
              <path class="logo-cls-3" d="M499.72,858.48c-2.33-1.93-4.47-3.75-6.79-5.67,10.24-7.37,21.86-11.62,26.93-24l-7.5-5.06c9.32-7.41,19-12.44,24.8-24.35l-11.67-7.88c10.24-5.73,16.75-16.28,20.57-27.69-3.47-1.2-6.24-2-9.41-3,6.36-5.52,11.72-10.43,13.94-18.4-4.06-.95-7.61-1.73-11.4-2.61,7.9-13.33,11.14-18.8,14-24.36-1.72-.34-5.57-3.48-6.94-3.75l21.92-50.44a338.16,338.16,0,0,0-43,37.11l-4.89-5.83-20.85,22.57-5.6-8.5c-10.13,8.14-16.74,17.78-20.07,31l-8.61-13c-9.27,8.15-11.82,19-14.46,30.58-3.76-3-7-5.31-10.77-8.27-8.2,10.48-9.69,22.36-9.92,35.91l-7.64-5.17c-7.4,10.81-8.38,22.79-9.52,35.72l-5.19-3.51c-6.44,6.18-7.15,13.77-8.49,21.48-.28,1.62-1,4.18-2,4.4-4.87,1.1-3.83-3.3-6.64,8.66-1.58,6.68-2.3,13.52-3.43,20.29-2.82,1.57-6.16,3.63-6.65,6.24-1.51,8.17-2,16.53-2.77,24.82-.14,1.38-.07,2.77-.1,4.57-4.39-1.05-7.49.12-7.81,4.25-.51,6.82-.38,13.68-.56,20.52a13.21,13.21,0,0,1-.44,4.1c-1,2.67-2.93,5.13-3.33,7.85-1.48,10-2.74,20.21-3.67,30.3-.39,4.25.11,8.61.2,13.94l4.67,3.15c1.9-1.88,5.53-3.71,7.91-5.49,6.34-4.76,23.31-11.68,27.41-17.57,2.91-4.18,1.88-3.82,5.55-6.89s10.11-4.62,13.23-8.23c1.3-1.51-3-2.86-1.39-3.95,7.1-5,14.38-9.73,22.1-14.89l-5-4.89c10.48-5.06,19.69-11,27.17-19.55l-4.7-5.19c1.16-1,2.07-1.88,3.06-2.64,5.63-4.27,11.52-8.24,16.77-12.93,2-1.78,4.4-3.94,5.6-6.62-.49-.28-2.84-1.82-3.33-2.1C487.68,869.14,496.34,867.16,499.72,858.48Z"/>
            </g>
            <g>
              <path class="logo-cls-3" d="M366.5,985.24V985c0,.12-.07.24-.12.37Z"/>
              <path class="logo-cls-3" d="M518.08,1016c.13-2.54.18-4.89.3-7.41,10.1,3.17,19.34,8.81,29.57,6-.15-3-.26-5.21-.37-7.59,9.55,2.55,18.22,6.52,28.49,4.43-.2-4-.37-7.53-.58-11.79,9.62,4,19.61,3,29.19-.14-.93-2.93-1.7-5.17-2.56-7.85,6.91,1.5,13,2.62,19.42.11-1.4-3.21-2.63-6-3.94-9,12.92-1.41,18.23-2,23.39-2.88-.64-1.32-.46-5.49-1-6.55l44.89-10.64a283.71,283.71,0,0,0-46.52-10.2c.35-1.5.76-3.25,1.46-6.21l-25.65-2.65c.74-2,1.67-4.64,2.9-8a46.41,46.41,0,0,0-30.94,2.14c1.54-4.33,2.87-8,4.39-12.31-10.14-2.13-18.71,1.62-27.81,5.67.09-4,.38-7.39.47-11.4-11.16-.25-20.61,4.77-28.77,11.38-.15-3-.24-5-.38-7.73-11.28.48-20.44,5.87-29.59,11.6-.1-2.1-.18-3.6-.26-5.25-6.65-1.24-12.75,2.13-18.6,5.11-1.23.62-3.28,1.41-3.93.85-3.18-2.71.31-4.23-9.12-.1-5.28,2.3-10.23,5.25-15.34,7.9-2.47-1.11-5.54-2.31-7.53-1.32-6.25,3.09-12.08,7-18.06,10.61-1,.6-1.89,1.35-3.12,2.24-1.5-3.48-3.84-5-6.78-3.11-4.83,3.09-9.37,6.62-14.06,9.94a10.92,10.92,0,0,1-3,1.77c-2.29.68-4.92.61-6.94,1.71q-11.22,6.06-22.1,12.77c-3.05,1.88-5.71,4.4-9.17,7.13l.23,4.73c2.5.31,5.18,1.85,7.58,2.55,6.37,1.86,19.51,9.78,25.53,9.57,4.27-.14,3.49-.65,7.4.26s8.17,4.47,12.16,4.75c1.67.12.43-3.43,2-2.92,6.92,2.27,13.76,4.77,21.11,7.35.33-2.52.51-3.83.77-5.81,8.67,4.49,17.31,7.68,26.79,8.41.43-2.19.74-3.83,1.12-5.76,1.26.27,2.3.44,3.31.73,5.7,1.62,11.33,3.59,17.12,4.76,2.2.44,4.85,1,7.25.43-.05-.48-.2-2.83-.26-3.3C504.87,1013.27,510.56,1018.09,518.08,1016Z"/>
            </g>
            <g>
              <path class="logo-cls-3" d="M359.1,979.37l.29-.27-.25.11A1.24,1.24,0,0,1,359.1,979.37Z"/>
              <path class="logo-cls-3" d="M353.48,853.94c-.78-.34-1-2.52-.94-3.9.14-6.57.51-13.52-3.52-19l-4.84,2.06c1.17-10.73,2-21.33-2.46-31.69l-7.12,3c2.39-10.23,2.78-20.92-2.31-30.86-3.57,1.84-6.49,3.57-10.05,5.4-.33-10-.69-19.3-7-27.49-3.17,3.22-5.94,6-9.16,9.32a46.38,46.38,0,0,0-11.57-28.78l-6,6.11-12.82-20.7a5.34,5.34,0,0,1-2.88,1.81c-.73.18-1.46.33-2.18.47l-.65.52c-.08-.13-.17-.25-.25-.37a41.66,41.66,0,0,1-21.39-1.83l2.18,9.83c-1.17,0-4.84,2-6.31,2,1.44,5,3.24,10.06,7.61,22.3l-9.79.36c.55,6.92,4.21,11.87,8.57,17.43-2.79.4-5.14.69-8.19,1.12,1.33,10,4.86,19.4,12.61,26.33l-10.86,4.62c2.6,10.15,10,16.23,16.41,23.71l-7,3c1.95,10.42,11,16.27,18.31,24-2.22,1.21-4.31,2.28-6.54,3.5,1.4,7.68,8.22,10.7,13,15.38-.45.15-2.63,1-3.08,1.2.56,2.4,2.19,4.56,3.55,6.35,3.58,4.7,7.8,8.9,11.74,13.32.7.78,1.31,1.65,2.11,2.67l-4.7,3.51c4.79,8.21,11.43,14.6,19.25,20.44l-4.89,3.24c5.53,5.48,10.77,10.54,15.83,15.78,1.11,1.15-2.62,1.58-1.79,3,2,3.48,7.09,5.81,9.58,8.88s1.73,2.64,3.46,6.54c2.44,5.51,15.29,13.88,19.75,18.81,1.68,1.85,4.23,3.59,5.6,5.7l4.35-1.85c1-4.3,2.07-7.8,2.43-11.36q1.28-12.69,1.85-25.46c.1-2.3-1.11-4.64-1.49-7a11,11,0,0,1,.3-3.45c.94-5.66,2.14-11.29,2.8-17,.41-3.46-2-4.92-5.75-4.75.27-1.49.55-2.63.66-3.78.65-7,1.62-13.91,1.67-20.88,0-2.23-2.39-4.46-4.47-6.2.15-5.76.65-11.49.42-17.25C357.15,851.82,357.32,855.62,353.48,853.94Z"/>
            </g>
            <g>
              <path class="logo-cls-3" d="M369.93,991.56l.11-.11-.21.1Z"/>
              <path class="logo-cls-3" d="M417.65,1072.43c1.19-1,2.27-1.9,3.46-2.87,2.67,5.84,3.89,12.3,9.3,15.78l3.27-3.25c2.73,5.34,4.47,10.87,9.58,14.65l5.09-5c2.12,6,6.59,10.08,11.92,13.12.94-1.62,1.64-2.87,2.5-4.35,2.13,3.72,4.08,6.91,7.84,8.8.88-1.93,1.63-3.61,2.45-5.42,5.88,5.26,8.3,7.42,10.8,9.38.34-.82,2.29-2.44,2.56-3.09l23.05,15.92a172.26,172.26,0,0,0-14.31-25.12l3.4-1.87c-3.19-4.36-6.19-8.49-9.23-12.65l4.8-2a28.11,28.11,0,0,0-13.54-13.09l7.34-3c-3.15-5.43-8.33-7.78-13.85-10.24,1.84-1.58,3.48-2.83,5.33-4.42-4.42-5.13-10.52-7.36-16.82-8.35,1.31-1.3,2.16-2.16,3.33-3.31-4.8-4.9-11-6.84-17.26-8.64l2.26-2.24c-2.14-3.52-6.14-4.9-9.86-6.33-.78-.3-2-.9-2-1.42-.06-2.54,2-1.58-3.66-4.16-3.18-1.44-6.52-2.47-9.8-3.71-.5-1.56-1.2-3.43-2.46-3.93-3.93-1.56-8.06-2.61-12.12-3.84-.68-.2-1.39-.3-2.28-.49,1-2.09.68-3.76-1.36-4.32-3.35-.93-6.79-1.54-10.19-2.31a6.45,6.45,0,0,1-2-.62c-1.23-.75-2.27-2-3.59-2.44q-7.31-2.6-14.74-4.78a65.62,65.62,0,0,0-6.94-1.23l-2,2c.87,1.25,1.27,3.08,1.93,4.44,1.75,3.64,3.51,12.78,6.05,15.42,1.8,1.86,1.72,1.3,2.89,3.44s1.31,5.5,2.81,7.42c.62.79,1.71-1.21,2.1-.32,1.79,4,3.44,8.15,5.26,12.51l2.94-2A42,42,0,0,0,399,1050l3.05-1.83c.39.68.74,1.22,1,1.79,1.58,3.23,3,6.56,4.81,9.66a10.89,10.89,0,0,0,2.75,3.44c.19-.22,1.2-1.24,1.39-1.46C413.51,1065.36,413.64,1069.89,417.65,1072.43Z"/>
            </g>
            <g>
              <path class="logo-cls-3" d="M353.3,984.35l-.08.15.19-.16Z"/>
              <path class="logo-cls-3" d="M280.54,914.93c-1,1.36-1.79,2.63-2.73,4-4.46-5.25-7.59-11.55-14.19-13.55l-2.42,4.3c-4.37-4.71-7.77-9.9-14.15-12.31-1.27,2.27-2.4,4.27-3.76,6.69-3.93-5.51-9.74-8.46-16.11-10-.5,1.94-.86,3.43-1.31,5.21-3.28-3.22-6.22-5.94-10.65-6.79-.34,2.25-.62,4.2-.94,6.3-7.6-3.7-10.72-5.23-13.86-6.51-.11.94-1.66,3.18-1.74,3.93l-28.4-9.69a185,185,0,0,0,22.07,21.72l-2.95,2.92,13.19,10.34-4.37,3.42A30.19,30.19,0,0,0,216,934.4c-2.36,1.84-4.37,3.43-6.68,5.25,4.84,4.68,10.85,5.59,17.26,6.51-1.44,2.17-2.77,3.93-4.21,6.11,6.06,4,13,4.51,19.78,3.7-1,1.73-1.61,2.85-2.47,4.39C246,964,253,964.21,260,964.22l-1.68,3c3.24,3,7.76,3.25,12,3.63.89.08,2.29.36,2.46.89.81,2.6-1.64,2.22,5,3.22,3.71.56,7.45.65,11.18,1,1,1.47,2.25,3.19,3.69,3.34,4.5.46,9.06.33,13.61.41.75,0,1.51-.09,2.49-.15-.38,2.43.39,4.07,2.65,4.06,3.73,0,7.45-.4,11.18-.6a7.35,7.35,0,0,1,2.25,0c1.5.42,2.92,1.37,4.41,1.47,5.52.36,11.06.56,16.59.62a66.1,66.1,0,0,0,7.51-.75l1.51-2.68c-1.26-1-2.21-2.81-3.28-4-2.87-3.24-7.35-12.15-10.74-14.12-2.4-1.39-2.14-.84-4-2.7s-2.95-5.29-5.05-6.83c-.88-.64-1.42,1.74-2.08.94-3-3.65-5.92-7.39-9.07-11.36l-2.44,2.93C315,941,311.3,936.29,306.34,932.6l-2.61,2.79c-.6-.59-1.12-1-1.57-1.55-2.57-2.87-5-5.9-7.77-8.55a11.85,11.85,0,0,0-3.85-2.75c-.13.28-.86,1.63-1,1.91C286.87,921,285.41,916.39,280.54,914.93Z"/>
            </g>
            <g>
              <path class="logo-cls-3" d="M356,990.22l.08,0H356Z"/>
              <path class="logo-cls-3" d="M354.92,1037.7l2.25-.31c-.41,3.22-1.61,6.32-.22,9.26l2.27-.52c-.25,3-1,5.86.21,8.85l3.53-.81a12.64,12.64,0,0,0,1.61,8.81l2.24-1.2c-.08,2.17-.09,4.06,1,5.88l2.5-1.68c1.13,3.84,1.58,5.41,2.14,6.92.36-.26,1.63-.44,1.92-.65l5.64,13a85.55,85.55,0,0,0,.57-14.61l2,.1-.58-7.89,2.58.44a14.23,14.23,0,0,0-2.31-9.24l3.95.67c.1-3.18-1.5-5.57-3.21-8.1,1.21-.19,2.25-.29,3.47-.48-.53-3.39-2.55-6-5-8.08l2.31-.53c-.75-3.39-2.88-5.86-5.1-8.32l1.57-.36c0-2.08-1.33-3.74-2.55-5.35-.25-.33-.6-.91-.47-1.14.65-1.11,1.3-.13-.46-2.76-1-1.47-2.14-2.81-3.21-4.21a3.16,3.16,0,0,0,0-2.35c-1.27-1.72-2.77-3.27-4.18-4.89-.24-.26-.52-.49-.85-.82,1-.63,1.3-1.43.57-2.21-1.19-1.3-2.5-2.48-3.76-3.72a3.33,3.33,0,0,1-.7-.8,10,10,0,0,0-.89-2c-1.62-2.05-3.31-4-5.05-6a35.11,35.11,0,0,0-2.65-2.38l-1.42.33a16.63,16.63,0,0,1-.36,2.42c-.22,2-1.9,6.43-1.51,8.24a5.44,5.44,0,0,1,.32,2.25c-.07,1.21-.91,2.71-.78,3.93.05.51,1.06-.06,1,.43-.31,2.22-.7,4.42-1.08,6.78l1.79-.08a21.26,21.26,0,0,0-1.09,8.55l1.8,0c0,.39,0,.72,0,1-.19,1.8-.47,3.61-.52,5.43a5.43,5.43,0,0,0,.27,2.21l1-.25C355,1033.56,353.88,1035.53,354.92,1037.7Z"/>
            </g>
            <g>
              <path class="logo-cls-3" d="M356.44,993.27l-.06-.11,0,.09Z"/>
              <path class="logo-cls-3" d="M318.32,1009.27c0,.15.12.86.13,1a5.54,5.54,0,0,0,2.15-.58c1.67-.72,3.24-1.66,4.85-2.51.28-.15.59-.27.95-.43.23.56.43,1,.7,1.66a21.23,21.23,0,0,0,7.52-4.2l.6,1.69c2-1.23,3.94-2.41,5.88-3.53.43-.25.27.89.77.75,1.18-.33,2.26-1.67,3.36-2.18a5.22,5.22,0,0,1,2.2-.55c1.83-.31,5.28-3.52,7.08-4.48a16,16,0,0,1,2.11-1.24l-.22-1.43a31,31,0,0,0-3.2-1.57c-2.46-.89-4.95-1.71-7.45-2.46a11.33,11.33,0,0,0-2.19-.07,3.47,3.47,0,0,1-1-.35c-1.62-.7-3.2-1.48-4.85-2.1-1-.38-1.61.22-1.84,1.36-.42-.19-.74-.36-1.08-.48-2-.71-4-1.52-6.09-2.06-.66-.17-1.51.39-2.18.87-1.7-.47-3.38-1-5.11-1.41-3.09-.65-1.95-.41-2.74.61-.15.2-.82.1-1.23,0-1.94-.53-4-1.15-5.91-.36l.25,1.59c-3.11-1.15-6.2-2.19-9.62-1.63.13.82.22,1.43.37,2.35-2.87-1.48-6-2.39-9.36-1.62.28,1.2.58,2.21.86,3.4-3-.64-5.8-1.23-8.72,0l2.1,3.43a14.21,14.21,0,0,0-9.44,1.3c.59.94,1,1.66,1.38,2.23l-7.54,2.41.82,1.77a87.1,87.1,0,0,0-13.34,6l14.16.38c-.08.35.23,1.59.12,2,1.61-.06,3.24-.22,7.21-.61-.2,1-.4,1.89-.62,3,2.1.35,3.85-.37,5.83-1.26-.09.86-.18,1.58-.28,2.53a12.63,12.63,0,0,0,8.79-1.8c.2,1.3.37,2.37.56,3.58,3.22,0,5.58-1.75,8.29-3.11.11.72.22,1.39.36,2.3,3.25.2,5.68-2.08,8.51-3.67.2.75.36,1.46.56,2.21C315.16,1012.16,316.57,1010.35,318.32,1009.27Z"/>
            </g>
            <path class="logo-cls-3" d="M359.92,979.25s-28.33,53.07-49.19,72.83a79.53,79.53,0,0,0,15.21-7.42c7.06-4.61,40.62-58,40.62-58Z"/>
            <rect class="logo-cls-3" x="342.66" y="958.26" width="39.29" height="49.76" transform="translate(-655.19 733.07) rotate(-55.96)"/>
          </g>
        </g>
        <path class="logo-cls-4" d="M620.54,445s-73.71-208.21-82.76-269Z"/>
        <path class="logo-cls-4" d="M589.5,407.47s2.59-24.57,7.12-31Z"/>
        <path class="logo-cls-4" d="M568.81,389.37s-3.88-27.16,14.23-55.61C583,333.76,570.11,366.09,568.81,389.37Z"/>
        <path class="logo-cls-4" d="M554.59,373.85s2.58-36.21,21.34-63.37C575.93,310.48,554.59,362.21,554.59,373.85Z"/>
        <path class="logo-cls-4" d="M531.31,345.4s9.05-44,32.33-69.19A308.9,308.9,0,0,0,531.31,345.4Z"/>
        <path class="logo-cls-4" d="M518.38,314.36s10.34-41.38,38.79-64C557.17,250.35,524.84,288.5,518.38,314.36Z"/>
        <path class="logo-cls-4" d="M627,394.54s-7.76-15.52-31-18.1C596,376.44,620.54,386.78,627,394.54Z"/>
        <path class="logo-cls-4" d="M630.89,364.8s-25.87-31-44.62-26.51C586.27,338.29,607.61,341.52,630.89,364.8Z"/>
        <path class="logo-cls-4" d="M633.47,331.17s-22-25.86-55.6-27.8C577.87,303.37,607.61,310.48,633.47,331.17Z"/>
        <path class="logo-cls-4" d="M629.59,297.55s-22-23.28-61.42-20.05C568.17,277.5,602.44,279.44,629.59,297.55Z"/>
        <path class="logo-cls-4" d="M615.7,265.85s-24.9-22.62-58.53-16.15C557.17,249.7,586.28,248.37,615.7,265.85Z"/>
        <path class="logo-cls-4" d="M505.44,280.74s11.64-41.39,42-68.54C547.47,212.2,515.79,252.29,505.44,280.74Z"/>
        <path class="logo-cls-4" d="M612.78,241.94s-41.38-36.21-65.95-29.74C546.83,212.2,568.81,210.9,612.78,241.94Z"/>
        <path class="logo-cls-4" d="M541,188.27s18.75-4.52,102.81,29.1C643.82,217.37,546.83,186.33,541,188.27Z"/>
        <path class="logo-cls-4" d="M568.81,556.2S413.62,377.73,380,366.09C380,366.09,519.67,499.29,568.81,556.2Z"/>
        <path class="logo-cls-4" d="M511.91,527.75s-9.05-28.46-7.11-39.45Z"/>
        <path class="logo-cls-4" d="M482.17,520s-9.06-25.87-2.59-58.2C479.58,461.79,479.58,507.05,482.17,520Z"/>
        <path class="logo-cls-4" d="M458.89,509.64s-14.23-25.86-5.18-73.07C453.71,436.57,451.13,483.78,458.89,509.64Z"/>
        <path class="logo-cls-4" d="M421.38,492.83S409.74,452.74,428.5,412C428.5,412,417.5,441.1,421.38,492.83Z"/>
        <path class="logo-cls-4" d="M544.24,496.71s-19.4-15.52-40.09-9A111.33,111.33,0,0,1,544.24,496.71Z"/>
        <path class="logo-cls-4" d="M533.9,464.38s-32.34-19.4-58.2-9.7C475.7,454.68,502.86,451.44,533.9,464.38Z"/>
        <path class="logo-cls-4" d="M521,428.17s-25.86-12.94-69.83,0C451.13,428.17,487.34,420.41,521,428.17Z"/>
        <path class="logo-cls-4" d="M501.56,395.84s-29.74-9.06-73.71,15.51C427.85,411.35,470.53,393.25,501.56,395.84Z"/>
        <path class="logo-cls-4" d="M470.53,368.68s-31-3.88-54.32,15.52C416.21,384.2,446,368.68,470.53,368.68Z"/>
        <path class="logo-cls-4" d="M431.73,542s-141,147.43-205.62,239.25Z"/>
        <path class="logo-cls-4" d="M378.71,570.42s-14.66,31-9.92,41.39C368.79,611.81,376.12,573,378.71,570.42Z"/>
        <path class="logo-cls-4" d="M350.26,582.06s-10.78,18.11-8.63,59.49C341.63,641.55,347.67,584.65,350.26,582.06Z"/>
        <path class="logo-cls-4" d="M319.22,598.87s-9.05,19.83-9.05,78.46C310.17,677.33,316.63,598.87,319.22,598.87Z"/>
        <path class="logo-cls-4" d="M411,596.29s-20.26,16.81-47,24.57C364.05,620.86,407.16,600.17,411,596.29Z"/>
        <path class="logo-cls-4" d="M405.87,624.74s-24.58,12.5-58.2,13.36C347.67,638.1,405.87,626,405.87,624.74Z"/>
        <path class="logo-cls-4" d="M399.4,645.43s-42.25,20.69-75.44,22C324,667.42,390.35,649.31,399.4,645.43Z"/>
        <path class="logo-cls-4" d="M386.47,681.64s-31,11.64-82.12,9.05C304.35,690.69,371,685.52,386.47,681.64Z"/>
        <path class="logo-cls-4" d="M367.07,711.39S303.7,729.49,274,724.32C274,724.32,330.86,717.85,367.07,711.39Z"/>
        <path class="logo-cls-4" d="M342.5,739.84s-61.09,11.77-90.68,12.35Z"/>
        <path class="logo-cls-4" d="M294.65,689.4s-7.76-25.86-3.88-69.83Z"/>
        <path class="logo-cls-4" d="M276.11,711.39s-20.26-51.73-12.5-67.25C263.61,644.14,271.8,710.09,276.11,711.39Z"/>
        <path class="logo-cls-4" d="M253.26,738.54s-15.52-25.86-16.81-49.14Z"/>
        <path class="logo-cls-4" d="M563.64,632.5s253.47-122.86,271.58-150C835.22,482.48,747.28,534.21,563.64,632.5Z"/>
        <path class="logo-cls-4" d="M608.9,580.77s35.35-14.23,65.53-9C674.43,571.72,620.54,575.6,608.9,580.77Z"/>
        <path class="logo-cls-4" d="M625.72,551s38.36-6.89,83.19,1.73C708.91,552.75,638.65,548.44,625.72,551Z"/>
        <path class="logo-cls-4" d="M642.53,530.33s54.31-12.07,100.87,4.31C743.4,534.64,689.08,523.87,642.53,530.33Z"/>
        <path class="logo-cls-4" d="M671,494.12s88.8-.43,120.7,14.66C791.68,508.78,718.83,495.41,671,494.12Z"/>
        <path class="logo-cls-4" d="M705.9,470.84S806.77,467,848.15,483.78Z"/>
        <path class="logo-cls-4" d="M633.47,623.45s28-22,34.06-44C667.53,579.48,643.82,615.69,633.47,623.45Z"/>
        <path class="logo-cls-4" d="M671,620.86s25-24.57,19-54.32C690,566.54,687.79,597.58,671,620.86Z"/>
        <path class="logo-cls-4" d="M712.36,615.69s27.59-34.92,19-69.84C731.33,545.85,731.76,588.53,712.36,615.69Z"/>
        <path class="logo-cls-4" d="M752.45,604.05s23.28-43.54,6.47-75.44C758.92,528.61,769.26,552.32,752.45,604.05Z"/>
        <path class="logo-cls-4" d="M567.52,661s-84.06,129.32-128,177.17Z"/>
        <path class="logo-cls-4" d="M519.67,692a168.48,168.48,0,0,0-8.19,47Z"/>
        <path class="logo-cls-4" d="M493.81,706.21S480.87,736,483.46,769.58C483.46,769.58,487.34,732.08,493.81,706.21Z"/>
        <path class="logo-cls-4" d="M465.35,724.32s-9.05,29.74-7.76,54.31Z"/>
        <path class="logo-cls-4" d="M553.29,715.27s-22.41,16.81-35.78,19.39Z"/>
        <path class="logo-cls-4" d="M550.71,742.42s-23.28,9.06-46.56,16.82C504.15,759.24,549.41,747.6,550.71,742.42Z"/>
        <path class="logo-cls-4" d="M650.29,774.75S907.64,707.51,989.11,701Z"/>
        <path class="logo-cls-4" d="M683.91,728.2s50.44,6.89,84.06,17.67Z"/>
        <path class="logo-cls-4" d="M703.31,716.56s57.33,6,108.2,19.83Z"/>
        <path class="logo-cls-4" d="M738.23,699.75s67.68,15.52,105.61,28.45Z"/>
        <path class="logo-cls-4" d="M773.14,692s74.58,21.12,93.55,30.6Z"/>
        <path class="logo-cls-4" d="M809.35,686.81s64.67,22,84.06,32.33Z"/>
        <path class="logo-cls-4" d="M833.93,686.81S934.8,714,941.26,720.44Z"/>
        <path class="logo-cls-4" d="M730.47,755.36s-56.91-12.94-69.84-9.06C660.63,746.3,700.72,750.18,730.47,755.36Z"/>
        <path class="logo-cls-4" d="M849.44,759.24s-15.08-18.11-32.76-22C816.68,737.25,846.86,754.06,849.44,759.24Z"/>
        <path class="logo-cls-4" d="M905.05,748.89S879.19,725.61,866.26,723C866.26,723,906.35,746.3,905.05,748.89Z"/>
        <path class="logo-cls-4" d="M846.43,730.78a222.92,222.92,0,0,1,48.28,25.87Z"/>
      </g>
      <path class="logo-cls-5" d="M1203.86,557.43q-17.77-19.71-17.77-58.71T1203.86,440q17.78-19.71,53.09-19.72,23.4,0,46.56,11.24v15.82a94.08,94.08,0,0,0-44.72-11.46q-28.9,0-42.2,15.13t-13.3,47.7q0,32.81,13.19,47.82t42.31,15a91.13,91.13,0,0,0,44.72-11.24v15.83q-23.4,11-46.56,11Q1221.64,577.16,1203.86,557.43Z"/>
      <path class="logo-cls-5" d="M1511.05,422.36v153h-16.51V449.19l-55.73,78.2-52.28-77.74V575.32H1370v-153h17.89l51.83,79.57,53.44-79.57Z"/>
      <path class="logo-cls-5" d="M1826.38,422.36v153h-16.51V449.19l-55.73,78.2-52.28-77.74V575.32h-16.52v-153h17.89l51.83,79.57,53.44-79.57Z"/>
      <path class="logo-cls-5" d="M2067.41,422.36h47.93q35.77,0,53.78,19.15t18,57.21q0,76.6-71.78,76.6h-47.93Zm46.78,137.37q29.13,0,42.55-14.68t13.41-46.33q0-31.64-13.41-46.32t-42.55-14.68h-30.27v122Z"/>
      <path class="logo-cls-5" d="M2254.77,422.36h16.52v153h-16.52Z"/>
      <polygon class="logo-cls-5" points="1597.26 498 1584.81 519.56 1609.7 519.56 1597.26 498"/>
      <path class="logo-cls-5" d="M1087.25,511.8q15.82-3,25.22-15.14t9.41-29.81q0-22-11.47-33.26t-33.71-11.23h-62.84v153h16.51V513.63h.13V498.11l.1-.07h-.23V438h44.49q16.74,0,23.62,7.68t6.89,22.36q0,14.91-8.72,22.48-5.16,4.48-13.87,6.3l-19.92,4.35,8.41,15.46,38,58.74h19.5Z"/>
      <rect class="logo-cls-5" x="1932.83" y="490.7" width="53.85" height="16.05"/>
      <polygon class="logo-cls-5" points="1996.32 422.36 1899.77 422.36 1899.77 575.32 1996.32 575.32 1996.32 559.73 1916.28 559.73 1916.28 511.41 1916.28 511.41 1916.28 488.33 1916.28 488.33 1916.28 437.95 1996.32 437.95 1996.32 422.36"/>
      <g>
        <polygon class="logo-cls-5" points="2407.28 422.36 2390.77 422.36 2329.76 575.32 2347.65 575.32 2366 527.62 2372.19 511.8 2399.02 441.85 2425.86 511.8 2432.05 527.62 2450.39 575.32 2468.05 575.32 2407.28 422.36"/>
        <rect class="logo-cls-5" x="2345.81" y="563.66" width="107.86" height="11.66"/>
      </g>
    </g>
  </g>
</svg>
