<svg id="orange" data-name="Layer 1" viewBox="0 0 570.61 582.5">
  <defs>
    <style>
      .orange-cls-1 {
        fill: url(#linear-gradient);
      }

      .orange-cls-2 {
        fill: url(#linear-gradient-2);
      }

      .orange-cls-3 {
        fill: url(#linear-gradient-3);
      }

      .orange-cls-4 {
        fill: url(#linear-gradient-4);
      }
    </style>
    <linearGradient id="linear-gradient" x1="476.15" y1="70.14" x2="161.56" y2="445.05" gradientUnits="userSpaceOnUse">
      <stop offset="0" stop-color="#ff5246"/>
      <stop offset="1" stop-color="#fc8658"/>
    </linearGradient>
    <linearGradient id="linear-gradient-2" x1="533.91" y1="89.44" x2="266.33" y2="397.25" xlink:href="#linear-gradient"/>
    <linearGradient id="linear-gradient-3" x1="526.08" y1="83.36" x2="316.73" y2="278.58" xlink:href="#linear-gradient"/>
    <linearGradient id="linear-gradient-4" x1="546.19" y1="-2.43" x2="390.64" y2="219.72" xlink:href="#linear-gradient"/>
  </defs>
  <title>orange</title>
  <path class="orange-cls-1" d="M8.62,9.12s250,143,282,311,22,113,273,264V3.12Z" transform="translate(-8.62 -1.62)"/>
  <path class="orange-cls-2" d="M181.12,4.62s-47,76,155,237c0,0,95,96,160,213,0,0,34,70,68,87s0-538,0-538Z" transform="translate(-8.62 -1.62)"/>
  <path class="orange-cls-3" d="M217.12,3.62s22,115,122,169,223,245,223,245l-1-410Z" transform="translate(-8.62 -1.62)"/>
  <path class="orange-cls-4" d="M285.12,1.62s1,68,91,128c0,0,150,77,156,130,0,0,6,67,30,80s-3-333-3-333Z" transform="translate(-8.62 -1.62)"/>
</svg>
