<svg xmlns="http://www.w3.org/2000/svg" xmlns:xlink="http://www.w3.org/1999/xlink" viewBox="0 0 463.99 457.55">
  <defs>
    <style>
      .orange-weed-cls-1 {
        fill: url(#linear-gradient);
      }
    </style>
    <linearGradient id="linear-gradient" y1="228.77" x2="463.99" y2="228.77" gradientUnits="userSpaceOnUse">
      <stop offset="0" stop-color="#fc8658"/>
      <stop offset="1" stop-color="#ff5246"/>
    </linearGradient>
  </defs>
  <title>Asset 2</title>
  <g id="Layer_2" data-name="Layer 2">
    <g id="Layer_1-2" data-name="Layer 1">
      <path class="orange-weed-cls-1" d="M302.59,159.73q.09.21.18.39l-.21-.21ZM153.67,249.8c1.83,2.19,3.5,4.25,5.32,6.43-10.78,5.06-22.29,7-29.13,17.6l6.07,6c-9.92,5.25-19.8,8.23-27.21,18.27l9.45,9.33c-10.48,3.54-18.34,12.2-23.86,22.12,3,1.71,5.44,2.88,8.19,4.45-6.85,4-12.67,7.64-16.11,14.64,3.61,1.59,6.76,2.92,10.12,4.4-9.63,11-13.58,15.5-17.16,20.17,1.53.61,4.56,4.19,5.78,4.68l-29.06,43a318.93,318.93,0,0,0,46.27-27l3.52,6.25,23.25-17.32c.95,2.26,2.15,5.11,3.72,8.86,10.8-5.8,18.6-13.59,24-25.32l5.73,13.53c10-5.95,14.26-15.57,18.71-25.85,3,3.39,5.57,6.14,8.55,9.54,9.42-8.3,12.86-19.06,15.42-31.58l6.19,6.11c8.73-8.73,11.72-19.67,15-31.46l4.21,4.15c7-4.62,9-11.53,11.59-18.45.54-1.46,1.67-3.7,2.63-3.73,4.71-.17,3,3.72,7.66-6.88,2.61-5.92,4.47-12.14,6.69-18.22,2.89-1,6.35-2.31,7.25-4.64,2.81-7.31,4.67-15,6.87-22.53.37-1.25.54-2.56.88-4.23,3.88,1.74,7,1.2,8-2.59,1.66-6.23,2.73-12.61,4.09-18.92a12.14,12.14,0,0,1,1.11-3.73c1.37-2.3,3.6-4.25,4.45-6.7,3.11-9,6-18.26,8.65-27.46,1.1-3.88,1.39-8,2.23-13L298.92,156c-2.08,1.42-5.77,2.49-8.28,3.73-6.7,3.31-23.64,6.79-28.47,11.55-3.42,3.37-2.4,3.21-6.33,5.43s-10.18,2.53-13.7,5.34c-1.46,1.17,2.26,3.15.61,3.9-7.45,3.38-15,6.52-23.07,10,1.64,2.35,2.49,3.57,3.78,5.4-10.6,2.88-20.18,6.83-28.58,13.43l3.46,5.62c-1.26.73-2.25,1.39-3.3,1.92-5.95,3-12.11,5.64-17.79,9.08-2.16,1.31-4.76,2.9-6.34,5.17.41.35,2.32,2.18,2.73,2.53C166.68,242,158.31,242.34,153.67,249.8Zm145.49-94.47,0,.25c.06-.1.11-.21.17-.33ZM163.93,100.56c-.56,2.33-1,4.5-1.56,6.82C153.55,102.69,146,95.86,136,96.68c-.38,2.78-.66,4.86-1,7.09-8.41-4-15.77-9.2-25.65-9-.51,3.74-1,7-1.51,11-8.23-5.34-17.65-6.22-27.09-4.93.36,2.87.69,5.08,1,7.72-6.15-2.58-11.56-4.68-18-3.46.74,3.21,1.4,6,2.1,9-12.23-.93-17.25-1.32-22.18-1.38.35,1.34-.53,5.18-.25,6.24L0,121a267.75,267.75,0,0,0,41.37,17.52c-.58,1.33-1.27,2.88-2.43,5.51,8.05,2.37,15.65,4.63,23.32,6.9l-4.07,6.94a43.69,43.69,0,0,0,29.06,3.38L81,171.94c9,3.73,17.63,1.75,26.77-.43-.78,3.69-1.63,6.78-2.41,10.49,10.31,2.16,19.94-.85,28.65-5.57-.39,2.84-.64,4.7-1,7.23,10.55,1.51,20-1.9,29.45-5.63l-.67,4.91c6,2.31,12.19.24,18.13-1.51,1.25-.37,3.29-.74,3.79-.11,2.48,3.07-1,3.86,8.45,1.68,5.29-1.23,10.39-3.11,15.59-4.68,2.1,1.46,4.73,3.11,6.75,2.53,6.33-1.78,12.42-4.39,18.59-6.71,1-.38,2-.93,3.27-1.53.79,3.48,2.71,5.28,5.75,4,5-2,9.84-4.51,14.76-6.78a10.47,10.47,0,0,1,3.06-1.12c2.24-.24,4.67.28,6.74-.39,7.64-2.45,15.21-5.14,22.7-8,3.16-1.21,6.06-3.09,9.74-5l.6-4.42c-2.26-.72-4.48-2.61-6.58-3.68-5.59-2.83-16.4-12.45-22-13.3-4-.6-3.35,0-6.81-1.52s-6.8-5.56-10.46-6.51c-1.53-.4-1,3.1-2.31,2.38-6-3.31-11.94-6.81-18.3-10.48l-1.72,5.25c-7.27-5.67-14.73-10.11-23.39-12.44-.77,2-1.35,3.43-2,5.15-1.13-.47-2.06-.81-2.95-1.25-5-2.49-9.88-5.29-15-7.38a17.07,17.07,0,0,0-6.66-1.65c0,.45-.3,2.65-.33,3.1C175.71,105.37,171.27,99.92,163.93,100.56ZM305,162.06l-.31.2.25-.06ZM361.19,276c.44-.06,2.62-.51,3.06-.58a16.92,16.92,0,0,0-2.19-6.5c-2.51-5-5.69-9.6-8.59-14.39-.51-.84-.92-1.75-1.48-2.83l5-2.45c-3-8.44-8.07-15.51-14.31-22.29l5.09-2.15c-4.17-6-8.15-11.64-11.94-17.37-.83-1.26,2.7-1,2.18-2.5-1.25-3.57-5.56-6.61-7.34-9.89s-1.15-2.75-2.08-6.67c-1.3-5.53-11.77-15.51-15.06-20.85-1.23-2-3.29-4.07-4.19-6.26l-4.36,1c-1.64,3.83-3.27,6.87-4.22,10.11-2.25,7.71-4.31,15.48-6.13,23.29-.49,2.12.22,4.49.17,6.74a10.37,10.37,0,0,1-.87,3.15c-1.85,5.09-3.94,10.1-5.55,15.26-1,3.14,1,4.9,4.52,5.4-.51,1.33-1,2.34-1.27,3.39-1.81,6.34-3.91,12.62-5.17,19.07-.4,2.06,1.45,4.55,3.08,6.53-1.14,5.31-2.6,10.54-3.38,15.92-1.41,9.61-.9,6.06,2.36,8.28.67.45.47,2.51.2,3.78-1.26,6.06-2.81,12.45,0,18.2l4.84-1.07c-2.94,9.75-5.57,19.42-3.2,29.81l7.12-1.58c-4,9.07-6.2,18.92-3.2,29,3.63-1.08,6.64-2.18,10.26-3.26-1.42,9.29-2.7,18,1.75,26.71l10.12-7.05a43.65,43.65,0,0,0,5.74,28.68l6.59-4.63,8.79,22.68,5.29-2.87a268,268,0,0,0,20.84,39.8l-1.47-43.5c1.08.2,4.83-1,6.19-.75-.46-4.91-1.26-9.89-3.19-22l9.14,1.36c.68-6.51-1.85-11.74-4.92-17.65,2.65.12,4.88.26,7.78.38.5-9.51-1.14-18.83-7.14-26.59l10.88-2.41c-.65-9.86-6.42-16.77-11.11-24.83l7-1.54c0-10-7.42-17-12.82-25.42,2.26-.73,4.39-1.36,6.66-2.11C370.63,285.12,364.83,281.15,361.19,276ZM297.07,148.88,297,149l.22-.06ZM266.83,65.62c-1.27.7-2.44,1.38-3.71,2.07-1.46-5.88-1.47-12.08-5.89-16.24l-3.59,2.44C252,48.46,251.38,43,247.29,38.65l-5.59,3.8c-.94-5.88-4.37-10.49-8.78-14.23-1.15,1.34-2,2.38-3.07,3.6-1.33-3.82-2.59-7.11-5.75-9.52l-3.21,4.6c-4.54-5.89-6.41-8.32-8.39-10.57-.45.71-2.54,1.87-2.91,2.43L191,0a163.2,163.2,0,0,0,8.91,25.78l-3.47,1.14,6.36,13.32-4.79,1a26.54,26.54,0,0,0,10.29,14.48L201,57.24c2,5.59,6.38,8.66,11.08,11.9-2,1.15-3.73,2-5.72,3.17C209.53,77.84,214.8,81,220.46,83l-3.66,2.49c3.61,5.37,9,8.23,14.51,11l-2.49,1.69c1.38,3.63,4.85,5.61,8.05,7.57.68.42,1.67,1.18,1.59,1.67-.37,2.36-2.16,1.11,2.68,4.49,2.7,1.89,5.62,3.42,8.44,5.13.2,1.54.52,3.4,1.6,4.08,3.38,2.13,7,3.81,10.58,5.65.59.31,1.23.52,2,.86-1.25,1.77-1.29,3.36.5,4.24,2.95,1.44,6,2.6,9.06,3.9a6.1,6.1,0,0,1,1.75.93c1,.91,1.77,2.22,2.91,2.88q6.32,3.67,12.84,7a58.18,58.18,0,0,0,6.22,2.35l2.25-1.52a30.37,30.37,0,0,1-1-4.46c-1-3.68-1.05-12.46-2.95-15.34-1.34-2-1.36-1.51-2.08-3.69s-.26-5.33-1.31-7.37c-.44-.85-1.8.82-2-.07-1-4.06-1.78-8.15-2.71-12.52l-3.07,1.36a39.84,39.84,0,0,0-3.89-15.6l-3.15,1.17c-.25-.7-.47-1.26-.64-1.84-.9-3.26-1.63-6.6-2.78-9.78a10.22,10.22,0,0,0-2-3.67c-.22.16-1.32.94-1.53,1.11C269.45,72.9,270.11,68.68,266.83,65.62Zm44.41,92.83.11-.13-.21.12Zm55.45,77c1.11-1.09,2.11-2.13,3.22-3.22,3.23,5.64,5,12,10.81,15l3-3.57c3.24,5.12,5.49,10.52,11,13.86l4.65-5.55c2.69,5.79,7.57,9.53,13.2,12.1.8-1.72,1.39-3,2.12-4.61,2.49,3.55,4.74,6.58,8.7,8.14.71-2,1.31-3.79,2-5.68,6.4,4.75,9,6.7,11.73,8.44.27-.86,2.08-2.66,2.29-3.35L464,280.92a173.37,173.37,0,0,0-16.7-24l3.24-2.19c-3.6-4.09-7-8-10.44-11.87l4.65-2.41a28.48,28.48,0,0,0-14.82-11.93l7.1-3.71c-3.68-5.18-9.09-7.06-14.88-9,1.71-1.76,3.25-3.17,5-4.94-4.92-4.76-11.27-6.43-17.69-6.86l3-3.63c-5.29-4.49-11.66-5.87-18.16-7.1l2.07-2.47c-2.48-3.34-6.63-4.36-10.5-5.45-.82-.23-2.07-.73-2.13-1.25-.3-2.55,1.9-1.77-4.06-3.85-3.34-1.16-6.8-1.89-10.2-2.83-.65-1.53-1.53-3.35-2.84-3.73-4.1-1.21-8.35-1.88-12.55-2.74-.7-.15-1.42-.18-2.34-.29.77-2.19.34-3.85-1.76-4.22-3.46-.63-7-.93-10.47-1.39a6.69,6.69,0,0,1-2.07-.43c-1.32-.65-2.47-1.78-3.84-2.13q-7.58-1.94-15.27-3.45a61.29,61.29,0,0,0-7.1-.6l-1.86,2.22c1,1.18,1.56,3,2.35,4.3,2.09,3.5,4.71,12.53,7.51,14.95,2,1.71,1.84,1.15,3.22,3.19s1.82,5.42,3.5,7.21c.7.74,1.62-1.37,2.09-.51,2.18,3.91,4.21,7.88,6.44,12.1,1.21-1,1.83-1.51,2.77-2.29,2,5.63,4.6,10.67,8.56,14.94l2.91-2.13c.45.65.85,1.16,1.18,1.71,1.89,3.11,3.61,6.33,5.73,9.27a11.12,11.12,0,0,0,3.09,3.22c.17-.24,1.08-1.36,1.25-1.6C361.87,228.69,362.43,233.22,366.69,235.42Zm-57-82.89h-.08l.11,0ZM319,108.7l-2.14-.1c.94-2.92,2.59-5.59,1.81-8.55l-2.2.08c.76-2.75,1.93-5.26,1.35-8.24l-3.42.14a11.89,11.89,0,0,0,0-8.45l-2.28.72c.45-2,.79-3.74.08-5.62L309.6,79.8c-.38-3.75-.53-5.29-.78-6.78-.39.18-1.59.12-1.9.26l-3-13a82.33,82.33,0,0,0-3.06,13.45l-1.8-.44c-.28,2.56-.55,5-.82,7.42l-2.32-.85a13.4,13.4,0,0,0,.55,9l-3.56-1.3c-.64,2.93.43,5.42,1.58,8.07-1.16,0-2.14-.13-3.3-.16a12.73,12.73,0,0,0,3.23,8.36l-2.24.09c.11,3.27,1.65,5.93,3.29,8.59l-1.52.07c-.38,1.92.59,3.7,1.44,5.4.18.35.4,1,.24,1.13-.8.92-1.23-.1-.06,2.65.66,1.53,1.5,3,2.26,4.46a2.93,2.93,0,0,0-.4,2.18c.88,1.81,2,3.51,3,5.25.17.29.39.55.64.91-1,.42-1.45,1.1-.91,2,.88,1.4,1.89,2.73,2.84,4.09a3.15,3.15,0,0,1,.51.86,9.94,9.94,0,0,0,.48,2q1.72,3.27,3.65,6.43a29.85,29.85,0,0,0,2,2.67l1.37-.06a17,17,0,0,1,.75-2.18c.56-1.85,2.88-5.63,2.84-7.38a4.78,4.78,0,0,1,.09-2.14c.27-1.11,1.31-2.35,1.4-3.51,0-.48-1-.13-.84-.57.67-2,1.41-4,2.18-6.1l-1.68-.23a20.09,20.09,0,0,0,2.49-7.74l-1.66-.34c.08-.37.13-.67.22-1,.48-1.64,1.06-3.27,1.42-4.94a5.31,5.31,0,0,0,.13-2.11c-.13,0-.81.06-.95.07C318.17,112.52,319.57,110.88,319,108.7Zm-9.1,40.93,0,.11v-.08ZM348,141.4c0-.14,0-.82.05-1a5.28,5.28,0,0,0-2.1.17c-1.67.37-3.29,1-4.92,1.48-.29.09-.59.15-1,.23-.12-.55-.22-1-.36-1.66a20.1,20.1,0,0,0-7.7,2.6c-.09-.57-.15-.95-.26-1.68-2.12.8-4.08,1.56-6.07,2.26-.44.16-.1-.88-.58-.83-1.16.1-2.38,1.16-3.49,1.45a5.07,5.07,0,0,1-2.14.12c-1.75,0-5.51,2.35-7.34,2.93a17.16,17.16,0,0,1-2.18.78l0,1.37a30.65,30.65,0,0,0,2.7,2q3.19,1.88,6.48,3.56a10.64,10.64,0,0,0,2,.46,2.9,2.9,0,0,1,.87.49c1.38.93,2.72,1.93,4.13,2.79.86.53,1.54.08,1.95-.94.36.25.62.46.91.63,1.76,1,3.47,2.11,5.3,3,.58.28,1.46-.09,2.17-.43,1.5.74,2.95,1.56,4.49,2.2,2.76,1.13,1.74.72,2.64-.09.19-.16.79,0,1.15.23,1.71.82,3.49,1.76,5.41,1.36,0-.48,0-.91.05-1.52,2.68,1.6,5.37,3.1,8.63,3.17,0-.78.05-1.36.07-2.24a12.72,12.72,0,0,0,8.4,3.12c0-1.16-.15-2.14-.21-3.3,2.66,1.12,5.17,2.15,8.09,1.47-.47-1.22-.87-2.29-1.35-3.53a13.43,13.43,0,0,0,9,.43c-.38-1-.67-1.72-.89-2.31l7.41-.93c-.22-.85-.35-1.35-.46-1.79a82.47,82.47,0,0,0,13.41-3.24l-13.07-2.8c.14-.31.06-1.52.24-1.91-1.5-.22-3-.36-6.79-.68.36-.88.7-1.69,1.09-2.63-1.89-.68-3.64-.32-5.63.16.23-.79.44-1.44.7-2.3a11.91,11.91,0,0,0-8.46.15c0-1.24.06-2.27.1-3.42-3-.54-5.48.66-8.22,1.45,0-.69,0-1.33.06-2.19-3-.75-5.62.94-8.53,1.92-.05-.73-.08-1.41-.13-2.14C351.42,139.27,349.81,140.7,348,141.4ZM304.22,162s35.46-44.31,58.23-59a75,75,0,0,0-15.39,4.26c-7.35,3-47.72,46.76-47.72,46.76ZM273,154.71l33.41,33,26-26.38-33.41-33Z"/>
    </g>
  </g>
</svg>
