<svg xmlns="http://www.w3.org/2000/svg" xmlns:xlink="http://www.w3.org/1999/xlink" viewBox="0 0 281.13 461.5">
  <defs>
    <style>
      .pink-weed-cls-1 {
        fill: url(#linear-gradient-pink);
      }

      .pink-weed-cls-2 {
        fill: url(#linear-gradient-pink-2);
      }

      .pink-weed-cls-3 {
        fill: url(#linear-gradient-pink-3);
      }

      .pink-weed-cls-4 {
        fill: url(#linear-gradient-pink-4);
      }

      .pink-weed-cls-5 {
        fill: url(#linear-gradient-pink-5);
      }

      .pink-weed-cls-6 {
        fill: url(#linear-gradient-pink-6);
      }
    </style>
    <linearGradient id="linear-gradient-pink" x1="513.39" y1="-336.36" x2="513.6" y2="-336.36" gradientTransform="translate(341.3 -190.41) rotate(152.42)" gradientUnits="userSpaceOnUse">
      <stop offset="0" stop-color="#be59ca"/>
      <stop offset="0.84" stop-color="#c042a7"/>
    </linearGradient>
    <linearGradient id="linear-gradient-pink-2" x1="266.9" y1="-207.84" x2="513.54" y2="-207.84" xlink:href="#linear-gradient-pink"/>
    <linearGradient id="linear-gradient-pink-3" x1="565.96" y1="-346.58" x2="566.13" y2="-346.58" xlink:href="#linear-gradient-pink"/>
    <linearGradient id="linear-gradient-pink-4" x1="266.84" y1="-362.52" x2="566.6" y2="-362.52" xlink:href="#linear-gradient-pink"/>
    <linearGradient id="linear-gradient-pink-5" x1="549.07" y1="-355.12" x2="549.28" y2="-355.12" xlink:href="#linear-gradient-pink"/>
    <linearGradient id="linear-gradient-pink-6" x1="443.1" y1="-429.61" x2="551.43" y2="-429.61" xlink:href="#linear-gradient-pink"/>
  </defs>
  <title>Asset 3</title>
  <g id="Layer_2" data-name="Layer 2">
    <g id="Layer_1-2" data-name="Layer 1">
      <g>
        <path class="pink-weed-cls-1" d="M42,345.58l-.35-.26.29.09Z"/>
        <path class="pink-weed-cls-2" d="M132.32,196.8c-2.64-1.1-5.08-2.15-7.7-3.24,7.21-9.48,16.52-16.51,17.68-29.08l-8.16-2.5c6.37-9.25,13.74-16.46,15.66-28.79l-12.7-3.9c7.65-8,10.61-19.3,10.92-30.65-3.46-.13-6.16,0-9.33-.15,4.22-6.74,7.7-12.64,7.51-20.44-3.93.27-7.35.54-11,.79,3.45-14.21,4.86-20,5.88-25.82-1.65.16-6-1.61-7.3-1.48L139.64,0a319.1,319.1,0,0,0-28.53,45.32l-6-3.91L92.5,67.52,85.1,61.4c-6.89,10.13-10.19,20.65-9.54,33.54L64.22,85.6c-6.12,9.91-5.43,20.4-4.62,31.58-4.2-1.63-7.78-2.87-12-4.5-4.52,11.71-2.58,22.85,1,35.13l-8.32-2.55C36.54,157,39,168.12,41.5,180.1l-5.65-1.74c-4.11,7.36-2.65,14.4-1.73,21.72.19,1.55.22,4-.61,4.53-4.09,2.33-4.36-1.92-3.6,9.64.42,6.46,1.65,12.83,2.5,19.25-2.11,2.19-4.56,5-4.27,7.47.88,7.78,2.79,15.44,4.33,23.15.26,1.28.71,2.52,1.18,4.15-4.25.26-6.73,2.17-5.87,6,1.42,6.29,3.42,12.44,5.14,18.66a12.26,12.26,0,0,1,.74,3.82c-.15,2.68-1.23,5.44-.84,8,1.43,9.46,3.1,19,5,28.35.82,3.94,2.47,7.73,4,12.51L47,347.16c1.19-2.22,4-4.87,5.62-7.13,4.41-6,17.81-17,19.89-23.41,1.47-4.57.64-4,3.1-7.75s7.85-6.95,9.67-11.07c.76-1.72-3.46-1.76-2.35-3.18,5-6.45,10.3-12.74,15.83-19.52l-5.84-3c8-7.46,14.72-15.39,19.11-25.13l-5.67-3.38c.78-1.23,1.35-2.27,2-3.23,3.89-5.41,8.12-10.61,11.56-16.28,1.31-2.16,2.88-4.78,3.23-7.52-.52-.12-3.07-.86-3.59-1C124.39,209.74,131.66,205.56,132.32,196.8Z"/>
      </g>
      <g>
        <path class="pink-weed-cls-3" d="M.09,378.89,0,378.65V379Z"/>
        <path class="pink-weed-cls-4" d="M145.31,364.84c-.59-2.33-1.19-4.46-1.78-6.77,10,.08,19.88,2.61,28.34-2.72-1-2.65-1.67-4.63-2.43-6.74,9.32-.34,18.24.85,26.92-3.87-1.27-3.54-2.4-6.69-3.77-10.47,9.77.92,18.53-2.67,26.3-8.17-1.65-2.39-3-4.2-4.48-6.38,6.64-.56,12.42-1.21,17.55-5.26l-6-7c11.26-4.83,15.9-6.81,20.3-9-.94-1-1.93-4.83-2.67-5.64l37.56-22a267.07,267.07,0,0,0-44.78,3.63c-.09-1.45-.21-3.15-.4-6l-23.86,4.68c.1-2,.23-4.64.39-8a43.66,43.66,0,0,0-27.32,10.46c.2-4.34.37-8.05.57-12.32-9.73.88-16.43,6.62-23.52,12.78-1-3.64-1.7-6.77-2.72-10.42-10.14,2.86-17.28,10-22.82,18.2-1-2.7-1.61-4.46-2.47-6.87-10,3.55-16.83,10.94-23.5,18.63-.67-1.87-1.15-3.2-1.68-4.66-6.35.71-10.92,5.43-15.37,9.73-.94.91-2.57,2.18-3.31,1.86-3.62-1.58-.88-3.9-8.26,2.42-4.13,3.53-7.77,7.56-11.66,11.36-2.54-.32-5.63-.56-7.16.88-4.78,4.51-9,9.64-13.36,14.55-.73.82-1.33,1.75-2.19,2.88-2.32-2.72-4.85-3.43-7-.93-3.51,4.11-6.63,8.55-9.94,12.84a10.64,10.64,0,0,1-2.2,2.42c-1.87,1.24-4.26,1.9-5.79,3.45q-8.44,8.56-16.41,17.62c-2.24,2.53-3.94,5.54-6.3,9l1.51,4.2c2.33-.41,5.18.24,7.53.21,6.27-.08,20.31,3.45,25.68,1.6,3.81-1.31,3-1.56,6.74-1.81s8.6,1.78,12.29.93c1.53-.36-.57-3.21.94-3.17,6.87.13,13.73.5,21.07.81-.39-2.37-.59-3.6-.9-5.45,9.06,1.66,17.73,2.14,26.49.2-.22-2.1-.39-3.67-.58-5.51,1.21-.1,2.2-.24,3.19-.26,5.58-.1,11.2.12,16.75-.42a16.89,16.89,0,0,0,6.66-1.62c-.18-.41-1-2.49-1.14-2.9C132.64,366,139.09,368.8,145.31,364.84Z"/>
      </g>
      <g>
        <path class="pink-weed-cls-5" d="M18.92,378.64l.07-.13-.17.15Z"/>
        <path class="pink-weed-cls-6" d="M84.27,438.44c.8-1.21,1.52-2.35,2.33-3.55,4,4.54,6.89,10,12.74,11.67l2-3.82c3.94,4.06,7,8.57,12.69,10.57,1.07-2,2-3.81,3.19-6,3.55,4.78,8.73,7.27,14.37,8.54.4-1.71.69-3,1.06-4.61,3,2.77,5.59,5.11,9.5,5.78.26-2,.47-3.71.71-5.56,6.76,3.12,9.54,4.4,12.33,5.48.08-.84,1.4-2.83,1.46-3.5l25.18,8a162.39,162.39,0,0,0-19.83-18.73l2.55-2.62-11.81-8.86,3.79-3.1a26.6,26.6,0,0,0-15.82-8.07l5.78-4.75c-4.35-4-9.66-4.72-15.32-5.42,1.23-1.93,2.36-3.51,3.6-5.46-5.42-3.41-11.53-3.73-17.49-2.89l2.1-3.91c-5.69-3.09-11.77-3.15-18-3L102.9,392c-2.9-2.58-6.89-2.72-10.64-3-.79-.06-2-.28-2.18-.74-.76-2.27,1.4-2-4.45-2.74-3.27-.43-6.57-.44-9.86-.65-.89-1.27-2-2.76-3.31-2.87-4-.32-8-.13-12-.11-.67,0-1.33.11-2.19.18.29-2.15-.42-3.58-2.42-3.53-3.28.09-6.55.49-9.83.73a6.26,6.26,0,0,1-2,0c-1.32-.34-2.59-1.15-3.91-1.21q-7.3-.33-14.62-.25a60.33,60.33,0,0,0-6.6.8L17.64,381c1.13.89,2,2.43,3,3.48,2.58,2.8,6.7,10.56,9.72,12.24,2.14,1.18,1.9.7,3.55,2.3s2.69,4.61,4.57,5.92c.79.55,1.22-1.56,1.82-.86,2.73,3.16,5.35,6.4,8.19,9.84l2.1-2.63a39.5,39.5,0,0,0,10.67,12l2.25-2.5c.54.51,1,.9,1.41,1.34,2.32,2.48,4.5,5.1,7,7.38a10.17,10.17,0,0,0,3.44,2.35c.11-.25.73-1.45.84-1.69C78.58,433.21,80,437.25,84.27,438.44Z"/>
      </g>
    </g>
  </g>
</svg>
