<svg id="pink" data-name="Layer 1" xmlns="http://www.w3.org/2000/svg" xmlns:xlink="http://www.w3.org/1999/xlink" viewBox="0 0 189.84 814">
  <defs>
    <style>
      .pink-cls-1 {
        fill: url(#linear-gradient-pink);
      }

      .pink-cls-2 {
        fill: url(#linear-gradient-2-pink);
      }

      .pink-cls-3 {
        fill: url(#linear-gradient-3-pink);
      }
    </style>
    <linearGradient id="linear-gradient-pink" x1="55.78" y1="415.62" x2="195.13" y2="415.62" gradientUnits="userSpaceOnUse">
      <stop offset="0" stop-color="#c042a7"/>
      <stop offset="1" stop-color="#be59ca"/>
    </linearGradient>
    <linearGradient id="linear-gradient-2-pink" x1="41.95" y1="409.12" x2="140.45" y2="409.12" gradientUnits="userSpaceOnUse">
      <stop offset="0.07" stop-color="#c042a7"/>
      <stop offset="1" stop-color="#be59ca"/>
    </linearGradient>
    <linearGradient id="linear-gradient-3-pink" x1="10.36" y1="454.95" x2="91.8" y2="454.95" gradientUnits="userSpaceOnUse">
      <stop offset="0.16" stop-color="#c042a7"/>
      <stop offset="1" stop-color="#be59ca"/>
    </linearGradient>
  </defs>
  <title>pink</title>
  <path class="pink-cls-1" d="M5.12,8.62s276,134,158,408c0,0-28,76-21,105,0,0,3,43,22,73s-9,107-9,107-51,101-102,121Z" transform="translate(-2.62 -8.62)"/>
  <path class="pink-cls-2" d="M2.62,18.12s169,118,155,314c0,0-52,192-27,237,0,0,58,137-77,231Z" transform="translate(-2.62 -8.62)"/>
  <path class="pink-cls-3" d="M12.62,143.12s125,112,103,224-43,176-16,244c0,0,19,75-49,150S12.62,143.12,12.62,143.12Z" transform="translate(-2.62 -8.62)"/>
</svg>
