<svg id="weed" data-name="Layer 1" xmlns="http://www.w3.org/2000/svg" viewBox="0 0 403 359.07">
  <defs>
    <style>
      .iphone-weed-cls-1 {
        fill: #00c3c3;
      }
    </style>
  </defs>
  <title>weed</title>
  <g>
    <g>
      <path class="iphone-weed-cls-1" d="M202.64,295.44h-.24l.33.13Z" transform="translate(-1.22 -3.44)"/>
      <path class="iphone-weed-cls-1" d="M241.37,159.36c-2.3-.29-4.44-.59-6.73-.88,3.6-9,9.38-16.52,7.57-26.63l-6.93-.19c3-8.63,7.21-15.88,6-26l-10.79-.31c4.27-7.92,4.15-17.43,1.93-26.4-2.74.65-4.84,1.31-7.35,1.9,1.85-6.19,3.31-11.57,1.47-17.65-3,1.06-5.64,2-8.46,3-.37-11.89-.52-16.76-1-21.52-1.25.49-5,0-6,.42L204.56,3.44A260,260,0,0,0,192,45.15l-5.56-1.76-4.23,23.2-7.12-3.21a42.4,42.4,0,0,0-.23,28.37l-10.92-4.87c-2.65,9.1.16,17.17,3.21,25.76-3.64-.37-6.72-.56-10.38-.93-1,10.16,2.92,18.47,8.35,27.34l-7.08-.2c-.35,10,3.94,18.21,8.52,27.05l-4.8-.14c-1.63,6.66,1,11.86,3.34,17.41.48,1.17,1,3.12.5,3.68-2.7,2.71-3.84-.56-.74,8.34,1.73,5,4.07,9.7,6.13,14.55-1.19,2.18-2.5,4.89-1.74,6.78,2.38,5.91,5.52,11.51,8.4,17.22.48.95,1.11,1.82,1.83,3-3.28,1.12-4.81,3.16-3.31,6,2.47,4.62,5.37,9,8.07,13.52a10,10,0,0,1,1.4,2.83c.46,2.14.21,4.53,1.07,6.46,3.17,7.11,6.54,14.22,10.09,21.14,1.49,2.91,3.61,5.53,5.86,8.94l4.33.13c.45-2,2.05-4.68,2.85-6.81,2.16-5.69,10.31-17.16,10.54-22.66.16-3.9-.35-3.25.76-6.75s4.65-7.15,5.18-10.77c.23-1.51-3.09-.63-2.53-2,2.56-6.15,5.32-12.21,8.2-18.73l-5.24-1.12c4.7-7.59,8.22-15.25,9.56-23.84l-5.18-1.42c.34-1.14.57-2.08.9-3,1.88-5.09,4.07-10.08,5.54-15.28a16.43,16.43,0,0,0,.91-6.59c-.44,0-2.59,0-3,0C238,171.22,242.75,166.37,241.37,159.36Z" transform="translate(-1.22 -3.44)"/>
    </g>
    <g>
      <path class="iphone-weed-cls-1" d="M207.21,296.27l-.12-.17.08.29Z" transform="translate(-1.22 -3.44)"/>
      <path class="iphone-weed-cls-1" d="M318.05,253.85c-1-1.7-1.89-3.24-2.85-4.93,7.85-2.09,16.15-2.24,21.63-8.26-1.32-1.87-2.31-3.26-3.36-4.76,7.23-2.28,14.48-3.27,20.28-8.85l-5.23-7.4c7.86-1.39,14-6.1,18.86-12.09-1.81-1.52-3.23-2.65-4.89-4,5.09-1.87,9.47-3.63,12.62-7.92-2.22-1.5-4.16-2.79-6.24-4.18,7.79-6.23,11-8.78,14-11.49-1-.6-2.56-3.37-3.32-3.84l24.71-25.36a218.2,218.2,0,0,0-34.33,12.52c-.39-1.11-.85-2.42-1.61-4.62l-17.71,8.83c-.36-1.63-.82-3.69-1.43-6.39A35.49,35.49,0,0,0,330,175.18c-.78-3.45-1.45-6.4-2.22-9.78-7.44,2.79-11.45,8.74-15.68,15.11-1.59-2.64-2.8-4.95-4.39-7.59-7.33,4.44-11.39,11.57-14,19.21l-3.42-4.85c-7.11,4.95-10.83,12.21-14.4,19.69l-2.32-3.3c-4.83,1.93-7.39,6.62-10,11-.54.91-1.55,2.26-2.19,2.17-3.18-.45-1.54-2.87-6,3.69-2.47,3.66-4.46,7.6-6.69,11.42-2.06.3-4.53.78-5.42,2.25-2.77,4.56-4.95,9.49-7.33,14.3-.4.8-.67,1.65-1.1,2.73-2.4-1.64-4.54-1.64-5.67.78-1.86,4-3.35,8.14-5,12.22a8.6,8.6,0,0,1-1.2,2.36c-1.2,1.39-2.93,2.42-3.79,4q-4.78,8.55-9.07,17.36a80.71,80.71,0,0,0-3,8.39l2.1,3c1.74-.83,4.11-.94,5.95-1.46,4.9-1.42,16.66-1.69,20.48-4.31,2.7-1.85,2-1.85,4.89-2.87s7.14-.47,9.84-1.93c1.13-.61-1.14-2.39.06-2.69,5.41-1.38,10.87-2.57,16.69-3.92-.81-1.77-1.24-2.7-1.88-4.08,7.46-.66,14.37-2.15,20.81-5.57l-1.64-4.19c.93-.35,1.67-.67,2.44-.9,4.36-1.29,8.81-2.33,13.05-3.95a13.75,13.75,0,0,0,4.87-2.71c-.23-.28-1.29-1.74-1.52-2C308.37,257.52,314,258.3,318.05,253.85Z" transform="translate(-1.22 -3.44)"/>
    </g>
    <g>
      <path class="iphone-weed-cls-1" d="M200,295.51c0-.11.05-.2.07-.29l-.11.17S200,295.47,200,295.51Z" transform="translate(-1.22 -3.44)"/>
      <path class="iphone-weed-cls-1" d="M103.38,258.9c-.23.28-1.27,1.76-1.5,2a13.76,13.76,0,0,0,4.91,2.65c4.25,1.58,8.72,2.56,13.09,3.8.77.22,1.52.53,2.46.87-.54,1.4-1,2.6-1.6,4.21,6.48,3.34,13.41,4.75,20.88,5.32-.63,1.39-1,2.32-1.84,4.1,5.84,1.28,11.31,2.41,16.74,3.72,1.2.29-1,2.1.09,2.69,2.72,1.43,7,.85,9.86,1.81s2.2,1,4.93,2.82c3.85,2.57,15.62,2.7,20.53,4.06,1.85.51,4.22.59,6,1.39l2.06-3a81.27,81.27,0,0,0-3.1-8.36q-4.4-8.75-9.27-17.25c-.88-1.53-2.63-2.55-3.84-3.92a8.62,8.62,0,0,1-1.23-2.35c-1.72-4.06-3.26-8.2-5.17-12.16-1.16-2.41-3.29-2.37-5.68-.71-.44-1.07-.72-1.93-1.12-2.72-2.45-4.77-4.68-9.68-7.51-14.21-.9-1.45-3.39-1.91-5.45-2.18-2.27-3.79-4.3-7.71-6.82-11.35-4.49-6.5-2.82-4.1-6-3.61-.64.1-1.66-1.24-2.21-2.15-2.62-4.3-5.24-9-10.09-10.83l-2.28,3.32c-3.66-7.43-7.46-14.65-14.63-19.52l-3.37,4.89c-2.66-7.6-6.8-14.69-14.18-19-1.57,2.66-2.74,5-4.3,7.63-4.31-6.32-8.39-12.22-15.86-14.92-.73,3.39-1.36,6.35-2.1,9.81a35.6,35.6,0,0,0-19.33-13.89c-.58,2.72-1,4.78-1.36,6.41l-17.8-8.61c-.74,2.21-1.18,3.52-1.56,4.64A217.7,217.7,0,0,0,1.22,152.2l25,25.07c-.76.48-2.32,3.27-3.27,3.88,3,2.67,6.23,5.18,14.1,11.32l-6.19,4.26c3.2,4.25,7.61,6,12.72,7.77-1.65,1.4-3.05,2.55-4.84,4.09,5,5.94,11.12,10.57,19,11.86l-5.13,7.47c5.86,5.5,13.12,6.42,20.38,8.61-1,1.5-2,2.91-3.3,4.8,5.55,5.95,13.85,6,21.73,8-.94,1.7-1.86,3.25-2.8,5C92.69,258.69,98.34,257.84,103.38,258.9Z" transform="translate(-1.22 -3.44)"/>
    </g>
    <g>
      <path class="iphone-weed-cls-1" d="M212,299l0-.12L212,299Z" transform="translate(-1.22 -3.44)"/>
      <path class="iphone-weed-cls-1" d="M276.2,331.72c.38-1.13.69-2.17,1.06-3.29,4.14,2.69,7.58,6.37,12.52,6.4.31-1.35.54-2.37.78-3.45,4,2.34,7.37,5.2,12.24,5.55.41-1.81.77-3.43,1.21-5.36,3.82,3,8.42,3.81,13.12,3.59-.06-1.44-.12-2.54-.17-3.85,2.91,1.54,5.49,2.8,8.7,2.48-.23-1.61-.43-3-.64-4.52,6,1,8.43,1.4,10.85,1.64-.12-.68.48-2.52.39-3.06l21.48.84a132.29,132.29,0,0,0-19.6-10.4c.34-.63.75-1.36,1.43-2.6l-11.18-4.4,2.3-3.25a21.63,21.63,0,0,0-14.15-2.91l3.51-5c-4.28-2.22-8.59-1.62-13.19-.94.55-1.78,1.1-3.26,1.64-5.06-5-1.5-9.84-.43-14.33,1.51.31-1.38.51-2.28.79-3.51-5.12-1.2-9.91.08-14.73,1.5.22-1,.37-1.64.54-2.38-2.83-1.4-6-.65-9,0-.63.13-1.65.22-1.87-.11-1.09-1.62.67-1.86-4.09-1.19-2.65.38-5.24,1.08-7.87,1.63-1-.81-2.19-1.73-3.21-1.53-3.19.6-6.3,1.62-9.43,2.5-.52.14-1,.37-1.68.61-.24-1.74-1.11-2.71-2.66-2.24-2.55.78-5,1.8-7.55,2.7a4.84,4.84,0,0,1-1.55.42,17,17,0,0,0-3.33-.1c-3.87.88-7.71,1.88-11.52,3a49.73,49.73,0,0,0-5,2.05l-.49,2.16a25.2,25.2,0,0,1,3.08,2.08c2.63,1.64,7.53,6.84,10.26,7.5,1.93.46,1.65.14,3.29,1s3.1,3,4.86,3.65c.74.26.62-1.49,1.24-1.07,2.82,1.89,5.58,3.86,8.55,5.94l1.08-2.51a32.44,32.44,0,0,0,11,7.13l1.22-2.45c.53.28,1,.49,1.4.74,2.35,1.45,4.63,3,7.08,4.28a8.28,8.28,0,0,0,3.21,1.1c0-.22.26-1.29.29-1.51C270.61,328.84,272.56,331.71,276.2,331.72Z" transform="translate(-1.22 -3.44)"/>
    </g>
    <g>
      <path class="iphone-weed-cls-1" d="M198.29,301.12v.13c0-.05,0-.11,0-.18Z" transform="translate(-1.22 -3.44)"/>
      <path class="iphone-weed-cls-1" d="M122.6,286.08c0,1.27-.08,2.44-.13,3.7-5-1.57-9.67-4.36-14.76-2.94.07,1.48.13,2.59.19,3.78-4.77-1.25-9.1-3.22-14.22-2.15.11,2,.2,3.75.31,5.88-4.81-2-9.79-1.48-14.56.12.47,1.46.86,2.58,1.29,3.92-3.45-.74-6.47-1.29-9.69,0l2,4.47c-6.45.72-9.1,1-11.66,1.48.31.66.23,2.74.49,3.26L39.47,313a141.3,141.3,0,0,0,23.23,5c-.17.75-.38,1.63-.72,3.1l12.8,1.27-1.42,4a23.13,23.13,0,0,0,15.43-1.13c-.76,2.17-1.42,4-2.17,6.15,5.07,1,9.33-.84,13.87-2.88,0,2-.18,3.68-.22,5.69,5.57.1,10.28-2.42,14.34-5.74.07,1.52.13,2.51.2,3.86,5.63-.26,10.19-3,14.74-5.85.06,1,.09,1.8.14,2.62,3.32.61,6.36-1.09,9.27-2.59.61-.31,1.63-.71,2-.43,1.59,1.35-.15,2.11,4.55,0,2.63-1.16,5.09-2.64,7.64-4,1.23.55,2.77,1.14,3.76.64,3.11-1.55,6-3.51,9-5.33.49-.3.94-.68,1.55-1.12.75,1.73,1.93,2.48,3.39,1.54,2.4-1.55,4.66-3.32,7-5a5.66,5.66,0,0,1,1.48-.89c1.14-.34,2.45-.31,3.46-.86q5.6-3.06,11-6.42a52.06,52.06,0,0,0,4.56-3.58l-.13-2.36a27.42,27.42,0,0,1-3.78-1.25c-3.18-.92-9.75-4.84-12.76-4.73-2.13.09-1.73.34-3.69-.11s-4.08-2.21-6.08-2.35c-.83-.05-.2,1.71-1,1.47-3.46-1.12-6.88-2.36-10.55-3.63-.16,1.26-.24,1.91-.37,2.9a34.64,34.64,0,0,0-13.38-4.15c-.21,1.1-.37,1.92-.55,2.88-.63-.13-1.15-.21-1.65-.35-2.85-.8-5.66-1.77-8.55-2.35a9,9,0,0,0-3.63-.19c0,.23.11,1.4.14,1.64C129.2,287.41,126.36,285,122.6,286.08Z" transform="translate(-1.22 -3.44)"/>
    </g>
    <g>
      <path class="iphone-weed-cls-1" d="M202.47,303.8l.05,0-.09,0Z" transform="translate(-1.22 -3.44)"/>
      <path class="iphone-weed-cls-1" d="M221.28,335l1.33-1.13c1.06,2.26,1.56,4.76,3.67,6.09l1.26-1.27c1.08,2.06,1.77,4.2,3.77,5.65l1.95-2a9.74,9.74,0,0,0,4.68,5.05c.35-.64.62-1.13.95-1.7a7.57,7.57,0,0,0,3.07,3.39c.34-.76.62-1.41.93-2.12,2.31,2,3.25,2.86,4.23,3.61.13-.33.88-1,1-1.21l9,6.09a65.52,65.52,0,0,0-5.64-9.69l1.31-.74-3.62-4.88,1.85-.77a10.93,10.93,0,0,0-5.3-5l2.84-1.19c-1.25-2.1-3.26-3-5.41-3.93.71-.62,1.34-1.11,2.05-1.73a10.42,10.42,0,0,0-6.56-3.19c.51-.5.83-.84,1.28-1.29-1.88-1.88-4.27-2.62-6.73-3.29l.88-.88c-.85-1.35-2.41-1.88-3.85-2.42-.31-.11-.77-.34-.78-.54,0-1,.79-.62-1.43-1.6-1.25-.55-2.55-.94-3.82-1.41-.2-.6-.48-1.33-1-1.52-1.53-.59-3.14-1-4.72-1.44-.26-.08-.54-.11-.88-.18.36-.82.25-1.46-.54-1.68-1.31-.34-2.65-.57-4-.85a2.62,2.62,0,0,1-.78-.24,8.72,8.72,0,0,0-1.4-.93q-2.85-1-5.74-1.8a26,26,0,0,0-2.7-.46l-.78.8a12.64,12.64,0,0,1,.76,1.72c.69,1.4,1.41,4.94,2.41,6,.7.71.67.5,1.13,1.32s.53,2.13,1.12,2.87c.24.31.66-.47.81-.13.71,1.56,1.37,3.15,2.09,4.84l1.13-.8a16.28,16.28,0,0,0,2.81,6l1.17-.72c.16.26.3.47.41.69.62,1.25,1.18,2.54,1.9,3.73a4.14,4.14,0,0,0,1.08,1.33c.07-.09.46-.49.53-.57C219.65,332.29,219.72,334,221.28,335Z" transform="translate(-1.22 -3.44)"/>
    </g>
    <g>
      <path class="iphone-weed-cls-1" d="M204,305.61l-.08-.05,0,.05Z" transform="translate(-1.22 -3.44)"/>
      <path class="iphone-weed-cls-1" d="M185.88,331.65l.5.6a4.18,4.18,0,0,0,1.15-1.26c.79-1.15,1.42-2.41,2.11-3.62.13-.21.27-.41.44-.66l1.14.79a16.41,16.41,0,0,0,3.14-5.82c.37.28.61.48,1.08.85.82-1.64,1.57-3.19,2.36-4.71.18-.34.55.47.81.17.63-.7.77-2,1.27-2.8s.47-.58,1.21-1.26c1-.95,2-4.44,2.74-5.81a12.53,12.53,0,0,1,.86-1.67l-.74-.84a26.67,26.67,0,0,0-2.71.3q-2.94.66-5.84,1.48a8.3,8.3,0,0,0-1.45.85,2.54,2.54,0,0,1-.79.19c-1.34.21-2.69.36-4,.63-.8.16-1,.8-.63,1.64-.36.05-.63.07-.9.13-1.6.37-3.23.67-4.79,1.18-.5.16-.82.86-1.06,1.46-1.29.39-2.61.7-3.88,1.18-2.28.86-1.44.54-1.53,1.52,0,.2-.49.4-.8.5-1.48.46-3.06.89-4,2.19l.82.93c-2.49.54-4.92,1.13-6.91,2.9l1.21,1.37a10.32,10.32,0,0,0-6.73,2.81c.67.66,1.28,1.18,1.95,1.84-2.2.82-4.26,1.59-5.63,3.61l2.77,1.36a10.92,10.92,0,0,0-5.58,4.72l1.81.89-3.9,4.66,1.27.81a66.68,66.68,0,0,0-6.18,9.36l9.33-5.58c.09.26.8.94.91,1.27,1-.7,2-1.47,4.43-3.36.27.72.51,1.39.8,2.16a7.5,7.5,0,0,0,3.27-3.21l.85,1.75a9.67,9.67,0,0,0,5-4.77l1.85,2.09c2.07-1.34,2.88-3.43,4.08-5.43l1.18,1.34c2.19-1.21,2.82-3.68,4-5.88l1.27,1.21C185,334.82,185.19,333.08,185.88,331.65Z" transform="translate(-1.22 -3.44)"/>
    </g>
    <path class="iphone-weed-cls-1" d="M200.48,295.1s3.48,46-1.91,67.41a60.91,60.91,0,0,0,6.8-11.07c2.68-5.89,2.45-54.29,2.45-54.29Z" transform="translate(-1.22 -3.44)"/>
    <rect class="iphone-weed-cls-1" x="188.56" y="277.54" width="30.15" height="38.19" transform="translate(-99.89 488.33) rotate(-88.37)"/>
  </g>
</svg>
